<?xml version="1.0" encoding="utf-8"?>
<!-- Generator: Adobe Illustrator 27.8.1, SVG Export Plug-In . SVG Version: 6.00 Build 0)  -->
<svg version="1.1" id="Layer_1" xmlns="http://www.w3.org/2000/svg" xmlns:xlink="http://www.w3.org/1999/xlink" x="0px" y="0px"
	 viewBox="0 0 1080 1080" style="enable-background:new 0 0 1080 1080;" xml:space="preserve">
<style type="text/css">
	.st0{fill:none;}
	.st1{fill:#454545;}
	.st2{fill:#646466;}
	.st3{fill:#259DCF;}
</style>
<g>
	<polygon class="st0" points="504.37,411.11 506.28,415.74 507.56,412.21 511.92,412.21 508.78,409.15 510.38,405.12 505.08,407.22 
		503.63,405.81 504.47,408.79 500.68,411.01 	"/>
	<polygon class="st0" points="509.78,424.25 515.64,424.25 519.86,419.97 514.98,415.21 509.66,415.21 507.97,419.86 	"/>
	<polygon class="st0" points="481.87,425.88 490.88,425.88 482.99,421.35 480.23,422.96 	"/>
	<polygon class="st0" points="481.84,413.48 480.25,416.31 482.98,417.88 490.11,413.71 	"/>
	<polygon class="st0" points="483.5,410.52 495.01,410.85 500.95,407.37 499.34,401.64 494.96,397.38 489.02,400.69 	"/>
	<polygon class="st0" points="496.55,448.08 497.81,443.4 495.33,445.66 492.08,443.88 493.88,447.07 491.69,449.35 	"/>
	<polygon class="st0" points="495.46,393.68 496.26,394.46 497.72,395.87 496.48,391.47 492.02,390.24 493.81,392.15 491.81,395.7 	
		"/>
	<polygon class="st0" points="500.96,431.66 496.1,428.88 483.57,428.88 489.27,438.93 494.89,442 499.25,438.03 	"/>
	<polygon class="st0" points="522.97,415.21 519.28,415.21 521.97,417.84 522.97,416.82 	"/>
	<polygon class="st0" points="522.93,422.98 522.01,422.07 519.85,424.25 522.93,424.25 	"/>
	<polygon class="st0" points="519.26,438.02 522.93,434.5 522.93,427.25 516.89,427.25 512.65,431.55 514.4,435.97 	"/>
	<polygon class="st0" points="507.77,427.25 506.45,424.05 504.7,428.88 502.13,428.88 504.46,430.21 503.37,434.28 505.6,432.24 
		510.53,434.33 509.15,430.83 512.68,427.25 	"/>
	<polygon class="st0" points="479.63,386.83 476.66,391.69 476.48,404.22 486.82,398.48 490.12,392.6 486.5,388.72 	"/>
	<polygon class="st0" points="476.39,410.32 480.11,410.43 484.02,403.46 476.43,407.68 	"/>
	<polygon class="st0" points="476.52,431.95 484.27,436.19 480.13,428.88 476.52,428.88 	"/>
	<polygon class="st0" points="504.76,419.93 502.34,414.06 495.78,413.87 485.98,419.6 496.91,425.88 502.6,425.88 	"/>
	<polygon class="st0" points="537.28,343.12 537.28,334.35 532.67,341.7 534.54,344.67 	"/>
	<polygon class="st0" points="524.52,343.12 527.27,344.67 529.13,341.7 524.52,334.35 	"/>
	<polygon class="st0" points="522.97,405.42 519.09,401.67 514.22,403.6 512.31,408.4 516.21,412.21 522.97,412.21 	"/>
	<polygon class="st0" points="537.28,322.79 530.9,320.38 524.52,322.79 524.52,328.71 530.9,338.88 537.28,328.71 	"/>
	<polygon class="st0" points="589.44,373.2 589.52,377.71 594.63,379.67 599.61,377.93 599.69,373.18 594.49,368.3 	"/>
	<polygon class="st0" points="524.52,351 519.62,351 521.93,355.09 518.05,357.35 522.14,359.8 520.09,363.38 524.74,363.38 
		524.72,367.83 528.46,365.68 529.22,366.93 531.1,370.02 532.9,367.15 533.67,365.92 537.07,367.87 537.07,363.38 541.72,363.38 
		539.67,359.8 543.76,357.35 539.87,355.09 542.19,351 537.28,351 537.28,346.57 533.52,348.7 530.9,344.52 528.28,348.7 
		524.52,346.57 	"/>
	<polygon class="st0" points="475.6,360.51 475.57,362.17 479.16,362.17 476.5,359.54 	"/>
	<polygon class="st0" points="461.98,364.94 462.05,369.13 465.16,366.21 463.85,364.94 	"/>
	<polygon class="st0" points="475.39,371.95 479.24,375.68 483.75,373.87 485.77,368.69 482.2,365.17 475.51,365.17 	"/>
	<polygon class="st0" points="535.92,412.21 535.99,408.17 533.06,411 534.31,412.21 	"/>
	<polygon class="st0" points="588.28,433.73 588.28,442.01 592.51,435.05 590.84,432.33 	"/>
	<polygon class="st0" points="536.14,399.26 530.93,397.49 525.97,399.4 525.97,404.15 530.9,408.92 536.06,403.93 	"/>
	<polygon class="st0" points="576.04,368.69 578.06,373.87 582.56,375.68 586.41,371.95 586.29,365.17 579.61,365.17 	"/>
	<polygon class="st0" points="611.5,403.21 604.07,407.24 604.16,410.42 607.38,410.43 	"/>
	<polygon class="st0" points="601.12,408.84 597,411.08 594.7,407.32 592.24,411.49 588.4,409.36 588.46,413.24 583.36,413.38 
		585.63,417.44 581.82,419.63 585.65,421.87 583.38,425.88 588.28,425.88 588.28,430.31 591.9,428.33 594.26,432.17 596.75,428.08 
		600.92,430.36 600.96,425.86 605.27,425.78 603.01,422.02 607.09,419.62 603.37,417.47 605.67,413.43 601.24,413.41 	"/>
	<polygon class="st0" points="605.33,455.88 603.72,453.27 603.69,456.42 598.69,458.08 602.82,459.52 602.82,462.49 605.25,459.9 
		609.49,461.31 607.91,457.73 607.5,456.79 609.39,454.9 	"/>
	<polygon class="st0" points="599.83,364.94 597.95,364.94 596.64,366.21 599.76,369.13 	"/>
	<polygon class="st0" points="521.6,369.63 521.6,366.38 518.37,366.38 513.99,374 	"/>
	<polygon class="st0" points="564.9,425.88 575.83,419.6 566.02,413.87 559.47,414.06 557.05,419.93 559.21,425.88 	"/>
	<polygon class="st0" points="581.56,416.31 579.97,413.48 571.7,413.71 578.83,417.88 	"/>
	<polygon class="st0" points="581.58,422.96 578.82,421.35 570.93,425.88 579.93,425.88 	"/>
	<polygon class="st0" points="585.33,404.22 585.14,391.69 582.18,386.83 575.31,388.72 571.69,392.6 574.99,398.48 	"/>
	<polygon class="st0" points="565.33,391.47 564.1,395.86 566.35,393.68 569.99,395.7 568,392.15 569.78,390.24 	"/>
	<polygon class="st0" points="546.22,424.2 552.03,424.24 553.84,419.86 552.15,415.21 546.82,415.21 541.97,419.95 	"/>
	<polygon class="st0" points="555.53,415.74 557.43,411.11 561.13,411.01 557.34,408.79 558.19,405.77 557.25,406.64 556.57,407.3 
		556.56,407.29 551.47,405.23 553.03,409.15 549.89,412.21 554.25,412.21 	"/>
	<polygon class="st0" points="585.42,410.32 585.38,407.68 577.79,403.46 581.7,410.43 	"/>
	<polygon class="st0" points="560.85,407.37 566.8,410.85 578.31,410.52 572.79,400.69 567.05,397.5 562.42,401.83 	"/>
	<polygon class="st0" points="592.92,404.41 588.22,396.72 588.35,405.9 591.14,407.45 	"/>
	<polygon class="st0" points="586.24,362.17 586.21,360.51 585.31,359.54 582.65,362.17 	"/>
	<polygon class="st0" points="586.49,376.06 583.25,379.19 579.55,377.7 581.34,382.27 579.23,384.53 583.56,383.34 585.06,385.79 
		585.02,383.03 590.25,381.21 586.55,379.79 	"/>
	<polygon class="st0" points="585.41,355.23 586.85,353.81 586.85,352.25 582.66,352.25 	"/>
	<polygon class="st0" points="596.42,404.39 598.07,407.08 601.03,405.48 600.8,396.95 	"/>
	<polygon class="st0" points="594.58,382.87 588.05,385.15 588.13,390.82 594.65,401.48 600.64,391.29 600.48,385.13 	"/>
	<polygon class="st0" points="589.29,365.17 589.36,369.09 592.3,366.24 591.15,365.17 	"/>
	<polygon class="st0" points="507.71,363.38 516.63,363.38 518.07,360.87 515.09,359.08 	"/>
	<polygon class="st0" points="467.18,379.67 472.29,377.71 472.37,373.2 467.32,368.3 462.12,373.18 462.19,377.93 	"/>
	<polygon class="st0" points="518.34,390.35 521.6,385.17 521.6,373.09 511.03,379.17 508.06,384.34 512.4,388.74 	"/>
	<polygon class="st0" points="524.6,392.18 530.87,394.3 537.07,391.91 537.07,385.7 531.06,375.77 524.63,386.08 	"/>
	<polygon class="st0" points="524.7,371.3 524.66,380.29 529.31,372.87 527.42,369.74 	"/>
	<polygon class="st0" points="522.97,397.35 526.5,395.99 521.59,394.32 521.6,393.21 521.6,390.94 520.39,392.88 520.32,392.84 
		519.7,393.82 516.57,392.97 517.9,394.33 515.74,399.77 519.79,398.17 522.97,401.24 	"/>
	<polygon class="st0" points="503,383.79 500.39,381.35 501.55,385.82 506.66,387.2 504.32,384.83 505.86,382.14 	"/>
	<polygon class="st0" points="514.91,366.38 502.56,366.38 497.3,369.43 498.98,375.91 503.43,380.08 508.83,376.98 	"/>
	<polygon class="st0" points="537.07,371.33 534.69,369.96 532.86,372.9 537.07,379.82 	"/>
	<polygon class="st0" points="539.11,400.98 542.03,398.16 546.08,399.8 543.9,394.33 545.24,392.98 542.09,393.82 541.48,392.82 
		541.41,392.86 540.09,390.68 540.07,392.97 540.07,393.97 535.31,395.81 539.18,397.12 	"/>
	<polygon class="st0" points="540.2,366.38 540.19,369.65 547.84,374.04 543.44,366.38 	"/>
	<polygon class="st0" points="540.11,384.82 543.48,390.34 549.41,388.74 553.75,384.34 550.79,379.19 540.17,373.1 	"/>
	<polygon class="st0" points="543.73,360.87 545.17,363.38 554.1,363.38 546.72,359.08 	"/>
	<polygon class="st0" points="528.75,411 525.97,408.32 525.97,412.21 527.5,412.21 	"/>
	<polygon class="st0" points="549.5,408.4 547.62,403.66 542.71,401.67 539.04,405.22 538.92,412.21 545.6,412.21 	"/>
	<polygon class="st0" points="560.26,385.82 561.42,381.35 558.81,383.79 555.95,382.15 557.48,384.83 555.15,387.2 	"/>
	<polygon class="st0" points="564.5,369.43 559.25,366.38 546.9,366.38 552.99,376.99 558.38,380.08 562.83,375.91 	"/>
	<polygon class="st0" points="596.03,435.04 600.81,442.82 600.89,433.77 597.82,432.09 	"/>
	<path class="st0" d="M627.77,415.01l0.9-1.52l-5.27-0.02l-10.37,6.11l10.09,5.82l4.06-0.08c0-0.01,0.01-0.03,0.01-0.04
		C625.08,421.79,625.74,417.76,627.77,415.01z"/>
	<path class="st0" d="M543.91,444.85l0.75-1.91c-0.01-0.96,0.17-1.9,0.51-2.77l-3.32,1.4l-0.71-0.73l-2.27-2.32v3.85l-3.54,1.27
		l4.87,1.74v3.37l1.8-2.9l3.17,0.83c-0.04-0.22-0.07-0.42-0.1-0.62L543.91,444.85z"/>
	<path class="st0" d="M433.63,445.16l-1.38-6.12l-3.68-3.42l-6.89,3.23c3.71,1.88,6.98,3.53,8.62,4.34
		C431.39,443.73,432.5,444.39,433.63,445.16z"/>
	<path class="st0" d="M545.71,449.93l-2.32-0.61l-3.18,5.12v12.04l8.52-4.85c-0.83-1.06-1.54-2.53-1.86-4.61
		C546.74,456.23,546.21,452.98,545.71,449.93z"/>
	<path class="st0" d="M551.78,464.16l-5.18,9.4l10.67,0.24l2.03-1.22c-2.06-2.22-3.76-4.43-4.87-6.54L551.78,464.16z"/>
	<path class="st0" d="M471.86,470.39l-0.2,0.18c0.06,0.03,0.13,0.06,0.19,0.08L471.86,470.39z"/>
	<path class="st0" d="M455.68,463.35l-1.17,0.39c0.8,0.3,1.58,0.59,2.36,0.89L455.68,463.35z"/>
	<path class="st0" d="M472.06,466.22l0.25-5.07l-4.53-1.51l-5.8,2.01v4.04l1.33,1.42c1.84,0.73,3.6,1.44,5.31,2.16L472.06,466.22z"
		/>
	<path class="st0" d="M588,339.28c0.41,0.34,0.83,0.69,1.24,1.03C588.83,339.97,588.42,339.62,588,339.28z"/>
	<path class="st0" d="M529.99,503.64l-5.63,12.22v0.99c1.16,0.81,2.29,1.71,3.39,2.68C527.85,514.6,528.61,509.26,529.99,503.64z"/>
	<path class="st0" d="M441.39,547l-1.53,0.59c-5,12.89-8.03,23.88-8.18,29.74c-0.09,3.49,0.78,6.12,2.66,8.04
		c2.76,2.83,7.98,4.38,14.71,4.38l0.48,0c12.29-0.14,54.56-16.96,74.11-31.67c-0.34-0.17-0.68-0.36-1-0.59
		c-0.13-0.06-0.6-0.23-1.49-0.23c-0.82,0-1.75,0.15-2.77,0.44l-0.12,0.03c-3.58,1.02-9.57,2.74-16.12,2.74
		c-6.99,0-12.98-1.94-17.8-5.78c-3.85-2.83-9.53-9.56-7.17-17.44c0.78-2.61,1.78-5.77,2.63-8.44c-11.7,6.72-28.74,14.15-38.42,18.11
		V547z"/>
	<path class="st0" d="M553.16,486.18c-0.19,0.43-0.39,0.91-0.6,1.44l1.05,0.63h-1.3c-3.1,7.91-8.28,24.13-7.62,28.11
		c2.47,6.95,6.72,7.76,9.7,7.76c0.48,0,0.98-0.02,1.49-0.07c9.7-0.93,18.11-4.19,36.03-13.97c5.29-2.89,9.13-5.04,11.91-6.63
		c-1.4-0.93-3.08-1.93-5.05-2.96c-0.31-0.16-24.16-12.92-37.32-25.7l-8.21,4.93C554.28,481.86,554.09,484.25,553.16,486.18z"/>
	<path class="st0" d="M501.48,509.46c1.07,0,2.2,0.06,3.37,0.17l1.54-2.77l-3.07,1.73l-5.03-4.57c-0.07,1.93-0.34,3.84-0.84,5.72
		C498.7,509.56,500.05,509.46,501.48,509.46z"/>
	<path class="st0" d="M446.5,460.74c0.64,0.25,1.29,0.5,1.96,0.75l2.21-4.09l-10.41-10.42l1.73-2.87l-2.7,1.47l-3.14-2.92l1.24,5.5
		C440.96,451.41,444.32,455.71,446.5,460.74z"/>
	<path class="st0" d="M600.84,350.48c0.29,0.27,0.58,0.53,0.87,0.8C601.42,351.01,601.13,350.75,600.84,350.48z"/>
	<path class="st0" d="M539.48,478.67l0.2-0.3c0.49-0.76,1.12-1.41,1.85-1.92l-4.32-0.1v-4.64l-3.61,2.07l-2.7-4.34l-2.69,4.34
		l-3.61-2.07v4.69l-1.52-0.01l-0.01-0.01l-2.9-0.02l1.93,3.5l-3.74,2.25l3.93,2.36l-2.11,3.79h4.18v5.07l4.76-2.67l1.78,3.86
		l1.79-3.86l1.19,0.67c1.54-4.03,3.35-8.15,5.45-12.33L539.48,478.67z"/>
	<path class="st0" d="M618.87,486.9l-2.95-9.09h-9.23C611.76,480.77,615.96,483.69,618.87,486.9z"/>
	<path class="st0" d="M481.86,474.33l3.61-3.93l-1.64-4.61l-4.63-1.86l-4.2,3.7l-0.21,4.35c1.67,0.78,3.25,1.56,4.74,2.35H481.86z"
		/>
	<polygon class="st0" points="622.25,455.68 623.26,451.55 614.98,453.55 611.07,457.46 611.08,457.48 613.34,462.59 617.07,463.83 
		619.98,464.97 621.2,459.97 620.53,457.87 	"/>
	<path class="st0" d="M586.61,463.45l-0.21-4.43l2.97-0.99l-4.09-1.42v-3.88l-1.92,3.17l-2.23-0.58c1.93,2.19,3.77,4.88,5.25,7.93
		L586.61,463.45z"/>
	<path class="st0" d="M622.51,445.58l-2.69-1.47l1.73,2.87l-2.5,2.5l5.01-1.21l1.02-4.17c0-0.31,0-0.61,0.01-0.91L622.51,445.58z"/>
	<path class="st0" d="M622.36,428.43l-11.84,0.24l6.23,10.35l5.3,2.9l3.15-2.94c0.16-3.27,0.46-6.06,0.85-8.43L622.36,428.43z"/>
	<path class="st0" d="M581.96,452.43l3.32-5.48v-11.58l-10.55,5.78l-3.09,5.45l3.35,3.49c0.47,0.33,0.89,0.61,1.23,0.85
		L581.96,452.43z"/>
	<polygon class="st0" points="630.58,405.12 631.57,408.64 632.57,406.96 	"/>
	<polygon class="st0" points="628.48,410.49 630.46,410.5 631.54,408.68 	"/>
	<path class="st0" d="M599.82,470.08l-2.46,2.63c0.83,0.44,1.65,0.87,2.46,1.3V470.08z"/>
	<path class="st0" d="M497.41,491.25h-1.4c0.09,0.23,0.18,0.46,0.26,0.69L497.41,491.25z"/>
	<path class="st0" d="M488.36,477.33h-3.68c2.16,1.41,4,2.85,5.5,4.34L488.36,477.33z"/>
	<path class="st0" d="M623.09,494.42c2.11,6.79,5.64,18.14-3.65,27.27c-1.63,1.6-4.35,3.64-7.7,5.89
		c6.47,3.03,12.75,8.78,16.81,17.12c0.65-0.22,1.28-0.43,1.88-0.66c-0.27-4.92-0.76-12.86-1.35-22.41
		c-0.86-13.85-1.92-31.15-2.74-46.17l-3.11,1l-2.7,6.08l1.78,9.59c0.17,0.41,0.34,0.82,0.46,1.24L623.09,494.42z"/>
	<path class="st0" d="M521.36,498.45l-9.97,5.6l-3.36,6.03c4.28,0.77,8.9,2.32,13.33,4.87V498.45z"/>
	<path class="st0" d="M503.73,504.91l5.45-3.06l5.9-10.6h-11.86l-6.02,3.63c0.44,1.63,0.76,3.28,0.94,4.95L503.73,504.91z"/>
	<path class="st0" d="M552.46,476.69l-1.92-0.04c0.31,0.22,0.6,0.44,0.86,0.68L552.46,476.69z"/>
	<path class="st0" d="M569.73,443.88l-2.07,1.13c0.34,0.24,0.69,0.48,1.03,0.71L569.73,443.88z"/>
	<path class="st0" d="M473.27,339.29c0.34-0.28,0.68-0.56,1.02-0.84C473.95,338.73,473.61,339.01,473.27,339.29z"/>
	<path class="st0" d="M485.61,338.44l6.63,2.51l3.93-3.75l2.78-10.92l11.56-3.1l3.82-3.82l-2.36-7.96
		c-5.45,3.42-11.79,7.61-18.64,12.5l3.13-0.75l0.7-1.95c1.44-1,2.85-1.97,4.22-2.9l-2.65,7.39l-11.7,2.8
		c2.1-1.57,4.16-3.07,6.19-4.52c-4,2.86-8.16,5.95-12.41,9.27c0.6-0.46,1.19-0.93,1.78-1.38L485.61,338.44z"/>
	<path class="st0" d="M480.16,333.75c-0.74,0.58-1.49,1.17-2.24,1.77l3.69,1.4L480.16,333.75z"/>
	<path class="st0" d="M464.8,347.82l-0.64-0.69c0.65-0.58,1.29-1.15,1.94-1.72c-1.32,1.16-2.64,2.34-3.96,3.53l1.35,0.21
		L464.8,347.82z"/>
	<path class="st0" d="M522.62,309.22v-4.26c-2.66,1.54-5.9,3.47-9.58,5.77l5.79,2.05L522.62,309.22z"/>
	<path class="st0" d="M471.96,340.57v-0.18c-1.85,1.54-3.7,3.13-5.56,4.75l0.51,0.55L471.96,340.57z"/>
	<path class="st0" d="M525.62,306.39l3.09-2.91l-1.3-1.23c1.32-0.73,2.26-1.23,2.78-1.5l0.71,0.67l0.54-0.51
		c-0.5-0.27-0.78-0.41-0.78-0.41s-2.34,1.21-6.37,3.51c0.47-0.26,0.92-0.52,1.34-0.76V306.39z"/>
	<path class="st0" d="M539.19,309.22l3.79,3.56l5.46-1.94c-4.24-2.65-7.9-4.82-10.78-6.47c0.49,0.28,1,0.58,1.53,0.89V309.22z"/>
	<path class="st0" d="M536.19,306.39v-2.86c-0.73-0.41-1.39-0.78-1.98-1.11l-1.12,1.06L536.19,306.39z"/>
	<path class="st0" d="M562.94,320.37c0.53,0.36,1.06,0.73,1.6,1.11C564.01,321.11,563.47,320.74,562.94,320.37z"/>
	<path class="st0" d="M415.88,424.1l-4.58-5.05l3.58-3.69l-3.2,0.08c-0.22,0.51-0.45,1.03-0.66,1.54v7.3L415.88,424.1z"/>
	<polygon class="st0" points="527.76,494.85 524.36,496.76 524.36,508.7 529.25,498.09 	"/>
	<path class="st0" d="M458.96,353.55l-0.15-1.53c-0.68,0.64-1.37,1.29-2.05,1.94l0.93,0.97L458.96,353.55z"/>
	<path class="st0" d="M422.07,407.94l-1.52-3.37l-3.11-0.97c-1.57,2.89-3.05,5.83-4.41,8.81l4.84-0.13L422.07,407.94z"/>
	<path class="st0" d="M547.48,319.36l3.82,3.82l11.55,3.1l2.78,10.92l3.94,3.75l6.62-2.51l2.89-6.29c0.81,0.62,1.62,1.25,2.43,1.89
		c-4.67-3.67-9.24-7.07-13.61-10.19c2,1.43,4.05,2.92,6.12,4.47l-10.96-2.63l-2.48-6.94c0.66,0.45,1.32,0.9,1.99,1.36
		c-4.89-3.37-9.45-6.34-13.5-8.88c0.23,0.15,0.45,0.29,0.69,0.44L547.48,319.36z"/>
	<path class="st0" d="M445.53,367.92l2.79-2.98h-2.41c0.94-1.01,1.88-2.01,2.84-3h2.37l4.52-4.83l-1.04-1.07
		c0.47-0.45,0.93-0.9,1.4-1.35c-4.9,4.71-9.71,9.68-14.32,14.9l5.41,2.28L445.53,367.92z"/>
	<path class="st0" d="M432.99,385.83l1.59-7.79c1.18-1.48,2.39-2.94,3.6-4.39c-4.66,5.53-9.06,11.31-13.09,17.33
		c0.84-1.26,1.7-2.51,2.57-3.74L432.99,385.83z"/>
	<path class="st0" d="M428.22,403.81l4.57-4.22l3.07-10.85l11.11-2.94l3.97-4.13l-2.32-5.9l-9.02-3.8c-0.46,0.53-0.9,1.07-1.35,1.6
		l0.29,0.06l-2.98,14.62l-10.5,2.79c-1.48,2.22-2.91,4.47-4.28,6.74l1.96,4.31L428.22,403.81z"/>
	<path class="st0" d="M523.42,304.5c0.22-0.13,0.46-0.26,0.67-0.39C523.88,304.24,523.65,304.36,523.42,304.5z"/>
	<path class="st0" d="M475.7,337.31c0.46-0.37,0.92-0.74,1.38-1.11C476.62,336.56,476.16,336.93,475.7,337.31z"/>
	<path class="st0" d="M512.01,311.37c0.24-0.15,0.48-0.3,0.72-0.45C512.49,311.07,512.26,311.22,512.01,311.37z"/>
	<path class="st0" d="M651.84,420.93c-0.33-0.88-0.68-1.75-1.03-2.62c0.35,0.88,0.68,1.77,1.01,2.65L651.84,420.93z"/>
	<path class="st0" d="M536.63,303.79c0.27,0.15,0.54,0.31,0.83,0.47C537.18,304.1,536.9,303.94,536.63,303.79z"/>
	<path class="st0" d="M532.61,301.54c0.38,0.21,0.82,0.45,1.29,0.71C533.41,301.98,532.99,301.75,532.61,301.54z"/>
	<path class="st0" d="M648.27,412.39c0.46,1.01,0.91,2.02,1.35,3.04l-0.92-0.02c0.31,0.94,0.6,1.85,0.88,2.69l0.92,0.95l-0.44,0.49
		c0.27,0.8,0.51,1.52,0.72,2.14v-3.47c-1.25-3.12-2.63-6.19-4.12-9.21c0.35,1.13,0.71,2.26,1.07,3.37L648.27,412.39z"/>
	<path class="st0" d="M556.6,551.47C556.6,551.47,556.6,551.47,556.6,551.47c-2.34,0-4.57-0.2-6.68-0.58c0,2.18-0.87,4.36-1.6,6.16
		c-0.44,1.09-0.94,2.32-1.35,3.57c-0.28,0.83-0.68,1.8-1.23,3.15c-2.1,5.09-7.68,18.61-4.32,25.48c2.62,5.36,9.4,6.16,13.2,6.16
		c4.74,0,10.01-1.23,14.86-3.46c7.84-3.61,20.88-9.91,32.95-17.14c-8.81-0.21-17.72-4.49-22.34-10.79
		c-3.03-4.13-3.95-8.78-2.59-13.1c0.51-1.61,1.08-3.32,1.74-5.06c-3.18,1.5-5.86,2.65-7.66,3.23
		C568.82,549.98,563.21,551.47,556.6,551.47z"/>
	<path class="st0" d="M602.84,353.55l1.28,1.37l0.69-0.72c-0.73-0.7-1.47-1.4-2.21-2.09c0.12,0.11,0.24,0.23,0.35,0.34
		L602.84,353.55z"/>
	<path class="st0" d="M567.71,323.72c-0.98-0.7-1.95-1.39-2.91-2.06l0.53,1.49L567.71,323.72z"/>
	<path class="st0" d="M594.9,345.69l0.28-0.3c0.74,0.65,1.49,1.32,2.24,1.99l-0.42,0.44l1.31,1.33l0.93-0.14
		c0.16,0.14,0.32,0.29,0.47,0.43c-3.01-2.75-6.04-5.4-9.06-7.95c0.22,0.18,0.43,0.37,0.65,0.55L594.9,345.69z"/>
	<path class="st0" d="M583.54,335.65c0.95,0.76,1.9,1.53,2.86,2.31c-1.64-1.34-3.27-2.64-4.89-3.92l-1.32,2.88L583.54,335.65z"/>
	<path class="st0" d="M606.17,357.11l4.51,4.83h1.88c0.94,0.98,1.87,1.96,2.8,2.95c-3.06-3.29-6.19-6.47-9.37-9.55
		c0.32,0.31,0.64,0.63,0.97,0.94L606.17,357.11z"/>
	<polygon class="st0" points="427.96,423.66 426.83,426.71 422.43,426.87 425.46,430.22 423.44,434.72 429.14,432.04 431.09,433.86 
		430.28,430.25 433.65,428.31 429.84,428.23 	"/>
	<path class="st0" d="M610.86,381.67l3.97,4.13l11.12,2.94l3.07,10.85l4.56,4.22l1.07-0.33l4.62-7.76
		c-3.62-5.82-7.61-11.43-11.86-16.81l1.41,6.92l4.7,1.25c0.89,1.26,1.76,2.52,2.62,3.8l-9.89-2.63l-2.92-14.35
		c1.29,1.53,2.55,3.08,3.8,4.65c-1.72-2.18-3.49-4.32-5.29-6.42l-8.64,3.64L610.86,381.67z"/>
	<path class="st0" d="M616.28,367.92l-1.56,3.95l5.04-2.12c0.62,0.7,1.23,1.4,1.84,2.1c-2.03-2.35-4.1-4.66-6.2-6.91h-1.91
		L616.28,367.92z"/>
	<path class="st0" d="M559.57,439.38l-3.97-3.62l-1.07,0.45c0.79,0.3,1.57,0.73,2.36,1.29
		C557.29,437.78,558.26,438.46,559.57,439.38z"/>
	<polygon class="st0" points="604.08,359.27 602.9,360.49 602.87,361.94 606.58,361.94 	"/>
	<polygon class="st0" points="592.85,347.88 589.85,344.84 589.85,349.25 591.57,349.25 	"/>
	<polygon class="st0" points="586.85,349.25 586.85,341.8 583.84,338.75 578.41,340.81 576.31,345.38 579.89,349.25 	"/>
	<polygon class="st0" points="516.31,321.63 519.54,320.76 521.52,323.93 521.52,320.71 526.66,318.77 522.62,317.25 522.62,313.34 
		519.55,316.22 516.17,315.02 517.72,320.22 	"/>
	<polygon class="st0" points="610.86,373.49 612.79,368.58 609.38,364.94 602.83,364.94 602.71,371.9 606.41,375.36 	"/>
	<polygon class="st0" points="603.42,383.04 603.51,386.41 605.35,383.29 609.25,384.32 607.37,382.37 609.32,377.39 605.78,378.89 
		602.65,375.95 602.58,380.07 598.97,381.33 	"/>
	<polygon class="st0" points="571.74,356.72 573.89,362.17 578.38,362.17 583.27,357.34 578.57,352.25 573.44,352.25 	"/>
	<polygon class="st0" points="540.28,329.57 540.28,341.42 551.06,335.31 553.99,330.12 549.74,325.87 543.63,324.24 	"/>
	<polygon class="st0" points="540.28,320.71 540.28,323.93 541.68,321.7 542.27,320.76 545.5,321.63 544.09,320.22 545.63,315.02 
		542.26,316.22 539.19,313.34 539.19,317.25 535.15,318.77 	"/>
	<polygon class="st0" points="570.11,352.58 571.37,349.25 575.8,349.25 572.75,345.95 574.42,342.32 568.87,344.42 567.03,342.67 
		567.97,346.38 565.26,348 568.3,348 	"/>
	<polygon class="st0" points="536.19,315.17 536.19,310.51 530.9,305.54 525.62,310.51 525.62,315.17 530.9,317.17 	"/>
	<polygon class="st0" points="553.26,337.51 547.33,348 559.41,348 564.51,344.95 562.94,338.78 558.49,334.54 	"/>
	<polygon class="st0" points="556.13,332.43 558.95,330.83 561.55,333.31 560.38,328.72 555.54,327.42 557.72,329.61 	"/>
	<polygon class="st0" points="589.24,362.17 592.33,362.17 594.45,364.15 596.74,361.94 599.87,361.94 599.92,359.26 602.03,357.08 
		599.72,354.61 599.99,351.93 597.25,352.35 594.95,350.02 592.87,352.25 589.85,352.25 589.85,355.06 587.45,357.43 589.19,359.32 
			"/>
	<polygon class="st0" points="603.67,392.07 603.98,403.87 614.32,398.26 617.42,392.82 613.26,388.48 606.78,386.77 	"/>
	<polygon class="st0" points="589.5,461.15 589.74,466.22 595,470.85 599.82,465.69 599.82,461.65 594.02,459.64 	"/>
	<polygon class="st0" points="602.82,466.88 602.82,474.81 609.21,474.81 613.6,470.6 611.13,465.01 606.13,463.35 	"/>
	<polygon class="st0" points="613.55,474.81 618.11,474.81 619.25,478.31 620.96,474.04 623.73,473.15 621.2,471.03 621.79,468.85 
		621.36,468.7 621.33,468.73 620.51,468.41 615.1,466.57 617.2,471.31 	"/>
	<polygon class="st0" points="577.54,436.19 585.28,431.95 585.28,428.88 581.68,428.88 	"/>
	<polygon class="st0" points="600.71,454.25 600.76,448.46 594.28,437.92 588.28,447.79 588.28,454.47 594.04,456.47 	"/>
	<polygon class="st0" points="603.77,447.62 606.74,452.45 613.46,450.83 617.77,446.52 614.6,441.26 603.88,435.4 	"/>
	<polygon class="st0" points="603.94,428.8 603.91,432 611.53,436.16 607.06,428.74 	"/>
	<polygon class="st0" points="619.32,395.54 622.68,393.72 624.8,395.68 623.53,391.2 618.84,389.96 621.14,392.35 	"/>
	<polygon class="st0" points="616.5,400.49 610.83,410.44 622.6,410.47 628.07,407.25 626.36,401.22 622.22,397.38 	"/>
	<polygon class="st0" points="607.14,423.06 608.73,425.7 617.34,425.53 610.07,421.34 	"/>
	<polygon class="st0" points="565.7,428.88 560.84,431.66 562.55,438.03 566.92,442 572.54,438.93 578.23,428.88 	"/>
	<polygon class="st0" points="607.45,416.36 610.06,417.87 617.53,413.46 609.12,413.44 	"/>
	<polygon class="st0" points="424.72,423.79 426.28,419.57 424.45,415.11 419.16,415.25 415.41,419.12 419.8,423.96 	"/>
	<path class="st0" d="M419.27,436.68l2.65-5.9l-3.41-3.77l-10.49,0.38v-2.37c-0.66,1.97-1.28,3.95-1.84,5.96
		c2.86,1.46,7.55,3.84,12.12,6.16L419.27,436.68z"/>
	<path class="st0" d="M459.91,350.99c0.36-0.33,0.72-0.67,1.08-1C460.63,350.32,460.27,350.65,459.91,350.99z"/>
	<path class="st0" d="M419.23,400.4c0.33-0.58,0.67-1.15,1.01-1.72C419.9,399.25,419.56,399.82,419.23,400.4z"/>
	<polygon class="st0" points="427.82,415.42 429.65,410.5 433.33,410.49 430.22,408.66 431.23,405.12 428.99,407.19 424.38,405.76 
		425.64,408.56 422.15,412.17 426.44,412.06 	"/>
	<polygon class="st0" points="450.98,410.44 445.31,400.49 439.59,397.38 435.45,401.21 433.74,407.25 439.21,410.47 	"/>
	<path class="st0" d="M417.57,403.35c0.26-0.48,0.53-0.95,0.8-1.43C418.1,402.4,417.83,402.87,417.57,403.35z"/>
	<path class="st0" d="M408.21,424.44c0.3-0.87,0.61-1.73,0.92-2.59C408.82,422.7,408.51,423.57,408.21,424.44z"/>
	<path class="st0" d="M409.55,420.7c0.43-1.15,0.89-2.29,1.35-3.43C410.43,418.41,409.98,419.55,409.55,420.7z"/>
	<path class="st0" d="M412.03,414.62c0.31-0.71,0.62-1.42,0.95-2.12C412.65,413.2,412.34,413.91,412.03,414.62z"/>
	<polygon class="st0" points="521.52,341.42 521.52,329.57 518.18,324.24 512.06,325.87 507.82,330.12 510.75,335.31 	"/>
	<polygon class="st0" points="442.49,395.54 440.67,392.35 442.97,389.96 438.28,391.2 437.01,395.68 439.13,393.72 	"/>
	<polygon class="st0" points="478.53,357.34 483.43,362.17 487.92,362.17 490.07,356.72 488.36,352.25 483.23,352.25 	"/>
	<polygon class="st0" points="479.15,352.25 474.96,352.25 474.96,353.81 476.4,355.23 	"/>
	<polygon class="st0" points="485.49,345.38 483.4,340.81 477.97,338.75 474.96,341.8 474.96,349.25 481.92,349.25 	"/>
	<polygon class="st0" points="490.43,349.25 491.7,352.58 493.5,348 496.55,348 493.84,346.38 494.78,342.67 492.94,344.42 
		487.39,342.32 489.05,345.95 486,349.25 	"/>
	<polygon class="st0" points="514.48,348 508.55,337.51 503.31,334.54 498.87,338.78 497.3,344.95 502.39,348 	"/>
	<polygon class="st0" points="505.68,332.43 504.08,329.61 506.27,327.42 501.43,328.72 500.26,333.31 502.86,330.83 	"/>
	<polygon class="st0" points="471.96,349.25 471.96,344.84 468.96,347.88 470.24,349.25 	"/>
	<polygon class="st0" points="457.82,403.87 458.14,392.07 455.03,386.77 448.55,388.48 444.38,392.82 447.49,398.26 	"/>
	<polygon class="st0" points="455.4,375.36 459.1,371.9 458.98,364.94 452.43,364.94 449.02,368.58 450.95,373.49 	"/>
	<polygon class="st0" points="458.91,360.49 457.73,359.27 455.23,361.94 458.93,361.94 	"/>
	<polygon class="st0" points="452.48,377.39 454.44,382.37 452.56,384.32 456.46,383.29 458.29,386.41 458.38,383.04 462.84,381.33 
		459.23,380.07 459.16,375.95 456.03,378.89 	"/>
	<polygon class="st0" points="461.89,359.26 461.93,361.94 465.07,361.94 467.35,364.15 469.47,362.17 472.57,362.17 472.62,359.32 
		474.36,357.43 471.96,355.06 471.96,352.25 468.93,352.25 466.85,350.02 464.55,352.35 461.82,351.93 462.08,354.61 459.78,357.08 
			"/>
	<polygon class="st0" points="495.54,351 493.28,356.74 495.81,363.38 501.75,363.38 512.14,357.32 501.57,351 	"/>
	<polygon class="st0" points="473.52,442.01 473.52,433.73 470.97,432.33 469.3,435.05 	"/>
	<polygon class="st0" points="460.92,433.77 461,442.82 465.78,435.04 463.99,432.09 	"/>
	<polygon class="st0" points="457.9,432 457.87,428.8 454.75,428.74 450.28,436.16 	"/>
	<polygon class="st0" points="460.57,413.41 456.13,413.43 458.44,417.47 454.72,419.62 458.8,422.02 456.54,425.78 460.84,425.86 
		460.88,430.36 465.06,428.08 467.55,432.17 469.91,428.33 473.52,430.31 473.52,425.88 478.43,425.88 476.16,421.87 479.99,419.63 
		476.18,417.44 478.45,413.38 473.35,413.24 473.4,409.36 469.57,411.49 467.11,407.32 464.81,411.08 460.69,408.84 	"/>
	<polygon class="st0" points="460.78,405.48 463.74,407.08 465.39,404.39 461.01,396.95 	"/>
	<polygon class="st0" points="444.47,425.53 453.08,425.7 454.67,423.06 451.74,421.34 	"/>
	<polygon class="st0" points="454.43,410.43 457.65,410.42 457.73,407.24 450.31,403.21 	"/>
	<polygon class="st0" points="473.45,405.9 473.59,396.72 468.89,404.41 470.67,407.45 	"/>
	<polygon class="st0" points="458.04,447.62 457.93,435.4 447.21,441.26 444.04,446.52 448.35,450.83 455.07,452.45 	"/>
	<polygon class="st0" points="458.09,453.27 456.48,455.88 452.42,454.9 454.37,456.85 451.9,461.45 456.56,459.9 458.98,462.49 
		458.98,459.52 463.11,458.08 458.12,456.42 	"/>
	<polygon class="st0" points="451.29,428.67 439.45,428.43 433.69,431.75 434.98,437.48 439.75,441.92 445.06,439.02 	"/>
	<polygon class="st0" points="451.75,417.87 454.36,416.36 452.69,413.44 444.27,413.46 	"/>
	<polygon class="st0" points="431.74,413.5 429.5,419.51 431.87,425.27 438.67,425.41 448.77,419.59 438.39,413.48 	"/>
	<polygon class="st0" points="569.59,373.69 565.51,377.51 562.72,388.26 550.98,391.43 547.41,395.04 549.93,401.37 555.89,403.78 
		559.81,400 562.9,389.03 573.7,386.05 577.86,381.6 575.73,376.16 	"/>
	<polygon class="st0" points="540.28,344.87 540.28,348 543.88,348 548.19,340.39 	"/>
	<polygon class="st0" points="517.92,348 521.52,348 521.52,344.87 513.62,340.39 	"/>
	<polygon class="st0" points="543.94,353.99 546.7,355.6 554.39,351 545.63,351 	"/>
	<polygon class="st0" points="571.85,365.17 570.16,360.88 568.07,366.38 565.21,366.38 567.98,367.98 566.92,372.07 568.93,370.19 
		574.24,372.33 572.53,367.94 575.34,365.17 	"/>
	<polygon class="st0" points="515.11,355.6 517.86,353.99 516.17,351 507.41,351 	"/>
	<polygon class="st0" points="560.24,351 549.66,357.32 560.06,363.38 566,363.38 568.52,356.74 566.26,351 	"/>
	<polygon class="st0" points="461.16,391.29 467.16,401.48 473.68,390.82 473.76,385.15 467.22,382.87 461.33,385.13 	"/>
	<polygon class="st0" points="475.26,379.79 471.56,381.21 476.79,383.03 476.75,385.79 478.25,383.34 482.58,384.53 480.47,382.27 
		482.25,377.7 478.55,379.19 475.32,376.06 	"/>
	<polygon class="st0" points="469.51,366.24 472.44,369.09 472.51,365.17 470.66,365.17 	"/>
	<polygon class="st0" points="483.95,381.6 488.11,386.05 498.91,389.03 502.01,400.05 505.78,403.72 511.91,401.29 514.39,395.04 
		510.83,391.43 499.08,388.26 496.3,377.51 492.22,373.69 486.07,376.16 	"/>
	<polygon class="st0" points="473.52,447.79 467.53,437.92 461.05,448.46 461.1,454.25 467.76,456.47 473.52,454.47 	"/>
	<polygon class="st0" points="489.96,365.17 486.47,365.17 489.28,367.94 487.57,372.33 492.88,370.19 494.89,372.07 493.83,367.98 
		496.59,366.38 493.74,366.38 491.65,360.88 	"/>
	<polygon class="st0" points="547.27,466.11 547.42,465.84 540.21,469.98 540.21,473.41 543.22,473.48 	"/>
	<polygon class="st0" points="525.93,435.81 525.93,440.26 530.9,442.04 535.88,440.26 535.88,435.46 531.25,430.74 	"/>
	<polygon class="st0" points="522.93,442.37 522.93,438.68 520.65,440.85 519.91,441.56 515.94,439.88 517.9,444.85 515.96,446.86 
		519.8,445.85 521.6,448.75 521.6,445.38 526.46,443.64 	"/>
	<polygon class="st0" points="534.59,469.69 537.21,468.19 537.21,459.27 532.67,466.59 	"/>
	<polygon class="st0" points="524.6,468.19 527.21,469.69 529.14,466.59 524.6,459.27 	"/>
	<polygon class="st0" points="538.88,427.16 538.88,434.24 542.58,438.01 547.41,435.97 549.15,431.55 544.86,427.2 	"/>
	<polygon class="st0" points="482.19,454.93 478.45,455.9 476.52,452.73 476.52,456.61 472.43,458.03 475.41,459.02 475.2,463.45 
		478.6,460.45 482.47,462.01 480.55,456.63 	"/>
	<polygon class="st0" points="557.11,428.88 555.36,424.05 554.04,427.26 552.51,427.25 549.24,427.22 552.15,430.13 552.06,430.22 
		552.66,430.83 551.28,434.33 556.21,432.24 558.44,434.28 557.35,430.21 559.68,428.88 	"/>
	<polygon class="st0" points="535.83,418.05 535.83,418.04 535.87,415.21 533.09,415.21 530.9,413.09 528.71,415.21 525.97,415.21 
		525.97,418.05 524.11,419.94 525.93,421.71 525.93,424.25 529.09,424.25 531.28,426.48 533.74,424.12 533.84,424.12 535.88,424.13 
		535.88,421.71 537.69,419.94 536.27,418.49 	"/>
	<polygon class="st0" points="511.97,451.01 508.31,454.81 511.6,460.79 521.6,466.48 521.6,454.44 518.42,449.32 	"/>
	<polygon class="st0" points="533.42,428.67 535.88,431.17 535.88,427.14 535.04,427.13 	"/>
	<polygon class="st0" points="542.53,415.21 538.87,415.21 538.85,416.83 539.85,417.83 	"/>
	<polygon class="st0" points="525.93,427.25 525.93,431.62 529.11,428.56 527.83,427.25 	"/>
	<polygon class="st0" points="538.88,422.98 538.88,424.15 541.88,424.18 539.8,422.07 	"/>
	<polygon class="st0" points="524.6,447.49 524.6,453.58 530.9,463.74 537.21,453.58 537.21,447.49 530.9,445.23 	"/>
	<polygon class="st0" points="492.51,466.06 496.01,462.79 499.13,451.27 510.39,448.32 514.4,444.15 512.07,438.24 506.2,435.76 
		501.92,439.65 499,450.54 487.73,453.48 484,457.37 486.2,463.52 	"/>
	<polygon class="st0" points="490.17,446.6 487.08,441.15 476.52,435.37 476.52,446.95 479.85,452.43 486.15,450.79 	"/>
	<polygon class="st0" points="506.4,452.47 501.57,453.73 500.17,458.9 503.24,456.02 506.61,457.94 504.61,454.32 	"/>
	<polygon class="st0" points="518.08,478.77 516.72,476.31 508.59,476.23 515.45,480.36 	"/>
	<polygon class="st0" points="514.71,466.43 518.5,473.32 521.6,473.36 521.6,469.98 514.38,465.84 	"/>
	<polygon class="st0" points="503.68,459.73 498.68,464.4 497.31,469.46 503.44,473.14 515.05,473.28 509.38,462.98 	"/>
	<polygon class="st0" points="502.59,476.13 495.73,476.05 493.55,481.94 496.19,488.25 502.38,488.25 512.55,482.11 	"/>
	<polygon class="st0" points="521.36,495.01 521.36,491.25 518.51,491.25 514.17,499.05 	"/>
	<polygon class="st0" points="518.26,485.54 515.46,483.86 508.19,488.25 516.75,488.25 	"/>
	<polygon class="st0" points="497.5,473.07 493.82,470.87 494.52,468.29 493.16,469.56 487.55,467.3 488.91,471.1 485.93,474.33 
		490.36,474.33 491.85,477.89 493.65,473.03 	"/>
	<path class="st1" d="M599.4,336.42c-32.01-27.61-63.08-43.73-64.39-44.4l-4.36-2.25l-4.37,2.25c-1.31,0.67-32.38,16.79-64.4,44.4
		c-34.18,29.48-56.24,60.97-64.92,92.32c0.67-0.2,1.38-0.3,2.1-0.3c1.5,0,2.98,0.4,4.66,1.28c0.43,0.22,1.29,0.66,2.46,1.26
		c0.55-2,1.18-3.99,1.84-5.96v-0.04c0.06-0.18,0.13-0.36,0.19-0.54c0.3-0.87,0.61-1.73,0.92-2.59c0.14-0.38,0.27-0.76,0.42-1.14
		c0.43-1.15,0.89-2.29,1.35-3.43c0.04-0.1,0.07-0.19,0.11-0.29v0c0.21-0.52,0.44-1.03,0.66-1.54l-0.01,0
		c0.12-0.27,0.24-0.55,0.36-0.82c0.31-0.71,0.62-1.42,0.95-2.12c0.01-0.03,0.03-0.06,0.04-0.09l0,0c1.37-2.98,2.84-5.92,4.41-8.81
		l-0.01,0c0.05-0.08,0.09-0.17,0.14-0.25c0.26-0.48,0.53-0.95,0.8-1.43c0.29-0.51,0.57-1.02,0.86-1.53
		c0.33-0.58,0.67-1.15,1.01-1.72c0.18-0.3,0.35-0.6,0.53-0.9l0,0.01c1.37-2.28,2.8-4.53,4.28-6.74l0,0
		c0.01-0.02,0.03-0.04,0.04-0.05c4.03-6.02,8.43-11.81,13.09-17.33c0.02-0.03,0.04-0.05,0.07-0.08l0,0c0.45-0.54,0.9-1.07,1.35-1.6
		l0,0c0.69-0.8,1.38-1.59,2.08-2.38l0,0c4.61-5.22,9.42-10.19,14.32-14.9c0.25-0.25,0.51-0.49,0.76-0.74l0,0
		c0.68-0.65,1.36-1.3,2.05-1.94l0-0.01c0.17-0.15,0.33-0.31,0.49-0.46c0.2-0.19,0.41-0.37,0.61-0.56c0.36-0.33,0.72-0.67,1.08-1
		c0.19-0.18,0.39-0.36,0.58-0.54c0.18-0.16,0.37-0.34,0.55-0.51l0.01,0c1.32-1.2,2.64-2.38,3.96-3.53c0.1-0.09,0.2-0.18,0.3-0.27
		l0,0c1.85-1.62,3.71-3.21,5.56-4.75v0c0.32-0.27,0.64-0.53,0.96-0.8c0.12-0.1,0.24-0.2,0.36-0.3c0.34-0.28,0.68-0.56,1.02-0.84
		c0.22-0.18,0.44-0.36,0.66-0.55c0.25-0.2,0.5-0.4,0.75-0.6c0.46-0.37,0.92-0.74,1.38-1.11c0.28-0.22,0.56-0.45,0.83-0.67l0.01,0
		c0.75-0.6,1.49-1.19,2.24-1.77l0,0c0.22-0.17,0.44-0.34,0.66-0.51c4.25-3.32,8.42-6.41,12.41-9.27c0.03-0.02,0.07-0.05,0.1-0.07
		l0,0c6.84-4.89,13.19-9.08,18.64-12.5l0,0c0.02-0.01,0.03-0.02,0.05-0.03c0.24-0.15,0.48-0.3,0.72-0.45c0.1-0.06,0.2-0.13,0.3-0.19
		l0,0c3.68-2.29,6.92-4.23,9.58-5.77v0c0.28-0.16,0.54-0.31,0.81-0.46c0.23-0.13,0.45-0.26,0.67-0.39c0.06-0.03,0.12-0.07,0.18-0.1
		c4.03-2.3,6.37-3.51,6.37-3.51s0.28,0.14,0.78,0.41l0,0c0.3,0.16,0.7,0.38,1.17,0.63c0.38,0.21,0.81,0.44,1.29,0.71
		c0.1,0.06,0.2,0.11,0.31,0.17l0,0c0.59,0.33,1.25,0.7,1.98,1.11v0c0.14,0.08,0.3,0.17,0.45,0.26c0.27,0.15,0.55,0.31,0.83,0.47
		c0.07,0.04,0.13,0.07,0.2,0.11c2.88,1.65,6.54,3.82,10.78,6.47l0.01,0c0.2,0.13,0.41,0.26,0.62,0.39c4.05,2.54,8.6,5.51,13.5,8.88
		c0.13,0.09,0.25,0.18,0.38,0.26c0.53,0.37,1.06,0.73,1.6,1.11c0.09,0.06,0.17,0.12,0.26,0.18l0,0c0.96,0.67,1.93,1.36,2.91,2.06
		l0,0c0.06,0.04,0.12,0.09,0.18,0.13c4.37,3.12,8.94,6.52,13.61,10.19c0,0,0,0,0,0v0c1.62,1.27,3.25,2.58,4.89,3.92
		c0.15,0.12,0.3,0.24,0.45,0.36c0.38,0.32,0.77,0.64,1.16,0.96c0.41,0.34,0.83,0.69,1.24,1.03c0.2,0.17,0.4,0.33,0.6,0.5
		c0.27,0.23,0.53,0.45,0.8,0.68c3.02,2.55,6.04,5.2,9.06,7.95c0.16,0.15,0.32,0.29,0.48,0.44c0.22,0.2,0.43,0.4,0.65,0.6
		c0.29,0.27,0.58,0.53,0.87,0.8c0.12,0.11,0.24,0.22,0.36,0.33c0.18,0.17,0.35,0.33,0.53,0.5c0.74,0.69,1.47,1.39,2.21,2.09l0,0
		c0.4,0.38,0.79,0.77,1.18,1.15c3.17,3.07,6.3,6.26,9.37,9.55c0.01,0.02,0.03,0.03,0.04,0.05h0c2.1,2.26,4.17,4.56,6.2,6.91
		c0.08,0.09,0.16,0.18,0.24,0.28l-0.01,0c1.8,2.1,3.56,4.24,5.29,6.42c0.09,0.12,0.19,0.23,0.28,0.34l0,0.02
		c4.25,5.39,8.24,10.99,11.86,16.81l2.14-3.59l4.44,14.26c0.27,0.85,0.54,1.73,0.82,2.61c1.49,3.02,2.87,6.09,4.12,9.21v0
		c0.01,0.03,0.02,0.06,0.04,0.1c0.35,0.87,0.7,1.75,1.03,2.62l6.06-10.17C646.77,385.42,627.05,360.26,599.4,336.42z"/>
	<g>
		<polygon class="st2" points="336.29,681.06 323.8,664.48 322.79,664.48 322.79,690.54 323.79,690.54 323.79,666.13 336.29,682.73 
			348.79,666.13 348.79,690.54 349.79,690.54 349.79,664.48 348.78,664.48 		"/>
		<path class="st2" d="M421.91,664.57l-12.03,25.97h1.11l3.71-8h15.28l3.71,8h1.1l-12.04-25.97H421.91z M415.15,681.54l7.17-15.5
			l7.18,15.5H415.15z"/>
		<path class="st2" d="M503.1,676.6c-4.48-0.89-6.68-2.33-7.09-2.76l-0.13-0.12c-0.54-0.52-2.2-2.09-1.1-4.79
			c1.44-3.54,6.89-3.92,9.16-3.92c4.12,0,7.28,0.94,9.94,2.96l0.61-0.8c-2.84-2.16-6.19-3.17-10.54-3.17
			c-3.08,0-8.48,0.59-10.09,4.55c-0.9,2.21-0.45,4.19,1.33,5.89l0.1,0.09c0.02,0.02,1.89,1.92,7.62,3.05
			c5.09,1,10.57,2.37,11.12,5.85c0.21,1.32-0.14,2.56-1.01,3.59c-1.56,1.86-4.7,2.96-8.61,3.02c-6.6,0.1-10.13-2.99-10.17-3.02
			l-0.67,0.75c0.15,0.14,3.74,3.28,10.52,3.28c0.11,0,0.22,0,0.33,0c4.26-0.06,7.58-1.26,9.36-3.38c1.06-1.26,1.49-2.78,1.23-4.39
			C514.36,679.16,508.77,677.72,503.1,676.6z"/>
		<path class="st2" d="M588.21,665.49h1.7v15.85c0,2.28-1.56,8.3-8.69,8.7c-0.04,0-3.6,0.15-6.15-2.55l-0.73,0.69
			c2.53,2.68,5.84,2.87,6.72,2.87c0.12,0,0.19,0,0.21,0c7.9-0.44,9.63-7.15,9.63-9.7v-16.85h-2.7V665.49z"/>
		<polygon class="st2" points="653.32,665.43 655,665.43 655,689.54 653.32,689.54 653.32,690.54 657.32,690.54 657.32,689.54 
			656,689.54 656,665.43 657.32,665.43 657.32,664.43 653.32,664.43 		"/>
		<path class="st2" d="M729.3,664.5h-9.44v25.88h9.44c7.13,0,12.94-5.8,12.94-12.94S736.43,664.5,729.3,664.5z M729.3,689.38h-8.44
			V665.5h8.44c6.58,0,11.94,5.36,11.94,11.94S735.88,689.38,729.3,689.38z"/>
		<path class="st2" d="M501.39,318.3c-1.38,0.93-2.79,1.9-4.22,2.9l-0.7,1.95l-3.13,0.75l0,0c-0.03,0.02-0.07,0.05-0.1,0.07
			c-2.02,1.45-4.09,2.95-6.19,4.52l11.7-2.8L501.39,318.3z"/>
		<path class="st2" d="M435.55,388.25l2.98-14.62l-0.29-0.06l0,0c-0.02,0.03-0.04,0.05-0.07,0.08c-1.22,1.45-2.42,2.91-3.6,4.39
			l-1.59,7.79l-5.33,1.42c-0.87,1.24-1.73,2.49-2.57,3.74c-0.01,0.02-0.03,0.04-0.04,0.05l0,0L435.55,388.25z"/>
		<path class="st2" d="M574.02,328.31c-2.08-1.55-4.12-3.04-6.12-4.47c-0.06-0.04-0.12-0.09-0.18-0.13l0,0l-2.38-0.57l-0.53-1.49
			l0,0c-0.09-0.06-0.17-0.12-0.26-0.18c-0.54-0.38-1.07-0.75-1.6-1.11c-0.13-0.09-0.25-0.18-0.38-0.26
			c-0.67-0.46-1.33-0.91-1.99-1.36l2.48,6.94L574.02,328.31z"/>
		<path class="st2" d="M544.67,443.43c-0.01-0.16-0.01-0.32-0.01-0.48l-0.75,1.91l1.17,1.21c-0.2-1.24-0.34-2.07-0.34-2.07
			l-0.05-0.28L544.67,443.43z"/>
		<path class="st2" d="M648.27,412.39l-0.54-0.01c0.33,1.04,0.66,2.05,0.97,3.03l0.92,0.02
			C649.18,414.41,648.73,413.4,648.27,412.39z"/>
		<path class="st2" d="M629.02,399.59l-3.07-10.85l-11.12-2.94l-3.97-4.13l2.33-5.9l8.64-3.64l0.01,0
			c-0.08-0.09-0.16-0.18-0.24-0.28c-0.61-0.7-1.22-1.4-1.84-2.1l-5.04,2.12l1.56-3.95l-2.79-2.98h1.91h0
			c-0.01-0.02-0.03-0.03-0.04-0.05c-0.93-0.99-1.86-1.98-2.8-2.95h-1.88l-4.51-4.83l0.79-0.82c-0.32-0.32-0.65-0.63-0.97-0.94
			c-0.39-0.38-0.79-0.77-1.18-1.15l0,0l-0.69,0.72l-1.28-1.37l0.11-1.1c-0.12-0.11-0.24-0.23-0.35-0.34
			c-0.17-0.17-0.35-0.33-0.53-0.5c-0.12-0.11-0.24-0.22-0.36-0.33c-0.29-0.27-0.58-0.53-0.87-0.8c-0.22-0.2-0.43-0.4-0.65-0.6
			c-0.16-0.15-0.32-0.29-0.48-0.44c-0.16-0.14-0.31-0.29-0.47-0.43l-0.93,0.14l-1.31-1.33l0.42-0.44c-0.75-0.67-1.5-1.34-2.24-1.99
			l-0.28,0.3l-3.6-3.65c-0.21-0.18-0.43-0.37-0.65-0.55c-0.27-0.23-0.54-0.45-0.8-0.68c-0.2-0.17-0.4-0.33-0.6-0.5
			c-0.42-0.35-0.83-0.69-1.24-1.03c-0.39-0.32-0.78-0.64-1.16-0.96c-0.15-0.12-0.3-0.24-0.45-0.36c-0.96-0.77-1.91-1.55-2.86-2.31
			l-3.35,1.27l1.32-2.88v0c0,0,0,0,0,0c-0.81-0.64-1.62-1.27-2.43-1.89l-2.89,6.29l-6.62,2.51l-3.94-3.75l-2.78-10.92l-11.55-3.1
			l-3.82-3.82l2.28-7.69c-0.24-0.15-0.46-0.29-0.69-0.44c-0.21-0.13-0.42-0.27-0.62-0.39l-0.01,0l-5.46,1.94l-3.79-3.56v-3.96
			c-0.53-0.31-1.04-0.61-1.53-0.89c-0.07-0.04-0.13-0.08-0.2-0.11c-0.29-0.17-0.56-0.32-0.83-0.47c-0.15-0.08-0.31-0.18-0.45-0.26v0
			v2.86l-3.1-2.91l1.12-1.06l0,0c-0.11-0.06-0.2-0.11-0.31-0.17c-0.47-0.26-0.91-0.5-1.29-0.71c-0.47-0.26-0.87-0.47-1.17-0.63l0,0
			l-0.54,0.51l-0.71-0.67c-0.52,0.27-1.46,0.77-2.78,1.5l1.3,1.23l-3.09,2.91v-3.14c-0.42,0.24-0.87,0.49-1.34,0.76
			c-0.06,0.03-0.12,0.07-0.18,0.1c-0.22,0.12-0.45,0.26-0.67,0.39c-0.27,0.15-0.53,0.3-0.81,0.46v0v4.26l-3.79,3.56l-5.79-2.05l0,0
			c-0.1,0.06-0.2,0.13-0.3,0.19c-0.24,0.15-0.48,0.3-0.72,0.45c-0.02,0.01-0.03,0.02-0.05,0.03l0,0l2.36,7.96l-3.82,3.82l-11.56,3.1
			l-2.78,10.92l-3.93,3.75l-6.63-2.51l-3.01-6.58c-0.59,0.45-1.19,0.92-1.78,1.38c-0.22,0.17-0.44,0.34-0.66,0.51l0,0l1.46,3.17
			l-3.69-1.4l-0.01,0c-0.28,0.22-0.56,0.45-0.83,0.67c-0.46,0.37-0.92,0.74-1.38,1.11c-0.25,0.2-0.5,0.4-0.75,0.6
			c-0.22,0.18-0.44,0.36-0.66,0.55c-0.34,0.28-0.68,0.56-1.02,0.84c-0.12,0.1-0.24,0.2-0.36,0.3c-0.32,0.27-0.64,0.53-0.96,0.8v0
			v0.18l-5.05,5.12l-0.51-0.55l0,0c-0.1,0.09-0.2,0.18-0.3,0.27c-0.65,0.57-1.29,1.14-1.94,1.72l0.64,0.69l-1.31,1.33l-1.35-0.21
			l-0.01,0c-0.18,0.17-0.37,0.35-0.55,0.51c-0.19,0.18-0.39,0.36-0.58,0.54c-0.36,0.33-0.72,0.67-1.08,1
			c-0.2,0.19-0.41,0.37-0.61,0.56c-0.16,0.15-0.32,0.31-0.49,0.46l0,0.01l0.15,1.53l-1.27,1.37l-0.93-0.97l0,0
			c-0.25,0.24-0.51,0.49-0.76,0.74c-0.47,0.45-0.93,0.9-1.4,1.35l1.04,1.07l-4.52,4.83h-2.37c-0.96,0.99-1.9,1.99-2.84,3h2.41
			l-2.79,2.98l1.56,3.95l-5.41-2.28l0,0c-0.7,0.79-1.39,1.58-2.08,2.38l0,0l9.02,3.8l2.32,5.9l-3.97,4.13l-11.11,2.94l-3.07,10.85
			l-4.57,4.22l-5.49-1.71l-1.96-4.31l0-0.01c-0.18,0.3-0.35,0.6-0.53,0.9c-0.34,0.57-0.68,1.14-1.01,1.72
			c-0.29,0.51-0.58,1.02-0.86,1.53c-0.27,0.47-0.54,0.95-0.8,1.43c-0.05,0.08-0.09,0.17-0.14,0.25l0.01,0l3.11,0.97l1.52,3.37
			l-4.21,4.34l-4.84,0.13l0,0c-0.01,0.03-0.03,0.06-0.04,0.09c-0.32,0.71-0.63,1.42-0.95,2.12c-0.12,0.27-0.25,0.55-0.36,0.82
			l0.01,0l3.2-0.08l-3.58,3.69l4.58,5.05l-4.86,0.18v-7.3v0c-0.04,0.1-0.07,0.19-0.11,0.29c-0.47,1.14-0.92,2.28-1.35,3.43
			c-0.14,0.38-0.28,0.76-0.42,1.14c-0.32,0.86-0.63,1.73-0.92,2.59c-0.06,0.18-0.13,0.36-0.19,0.54v0.04v2.37l10.49-0.38l3.41,3.77
			l-2.65,5.9l-0.97,0.46c1.15,0.58,2.29,1.16,3.39,1.72l6.89-3.23l3.68,3.42l1.38,6.12c1.25,0.86,2.51,1.87,3.75,2.99l-1.24-5.5
			l3.14,2.92l2.7-1.47l-1.73,2.87l10.41,10.42l-2.21,4.09c0.39,0.15,0.78,0.29,1.18,0.44c1.66,0.61,3.28,1.21,4.87,1.81l1.17-0.39
			l1.19,1.27c2.22,0.84,4.37,1.67,6.43,2.48l-1.33-1.42v-4.04l5.8-2.01l4.53,1.51l-0.25,5.07l-3.45,3.04
			c1.04,0.44,2.06,0.87,3.05,1.31l0.2-0.18l-0.01,0.26c1.01,0.44,1.99,0.89,2.94,1.33l0.21-4.35l4.2-3.7l4.63,1.86l1.64,4.61
			l-3.61,3.93h-2.33c1.87,0.99,3.6,1.99,5.15,3h3.68l1.82,4.34c1.02,1.02,1.89,2.07,2.58,3.16c1.28,2.01,2.38,4.17,3.26,6.42h1.4
			l-1.14,0.69c0.35,0.97,0.66,1.95,0.93,2.94l6.02-3.63h11.86l-5.9,10.6l-5.45,3.06l-5.59-5.08c0.15,1.39,0.2,2.79,0.15,4.19
			l5.03,4.57l3.07-1.73l-1.54,2.77c1.03,0.1,2.1,0.25,3.18,0.45l3.36-6.03l9.97-5.6v16.49c1.01,0.58,2.02,1.21,3,1.9v-0.99
			l5.63-12.22c0.98-3.98,2.28-8.1,3.88-12.32l-1.19-0.67l-1.79,3.86l-1.78-3.86l-4.76,2.67v-5.07h-4.18l2.11-3.79l-3.93-2.36
			l3.74-2.25l-1.93-3.5l2.9,0.02l0.01,0.01l1.52,0.01v-4.69l3.61,2.07l2.69-4.34l2.7,4.34l3.61-2.07v4.64l4.32,0.1
			c1.23-0.88,2.73-1.38,4.29-1.38c1.27,0,2.52,0.32,3.69,0.94c0.37,0.2,0.71,0.42,1.04,0.64l1.92,0.04l-1.06,0.63
			c0.83,0.73,1.43,1.54,1.84,2.39l8.21-4.93c-0.76-0.74-1.47-1.47-2.15-2.21l-2.03,1.22l-10.67-0.24l5.18-9.4l-1.1-0.78
			c-0.66-0.39-1.34-0.96-1.95-1.74l-8.52,4.85v-12.04l3.18-5.12l2.32,0.61c-0.19-1.16-0.37-2.29-0.53-3.24l-3.17-0.83l-1.8,2.9
			v-3.37l-4.87-1.74l3.54-1.27v-3.85l2.27,2.32l0.71,0.73l3.32-1.4c0.32-0.82,0.79-1.58,1.39-2.23c1.33-1.44,3.23-2.26,5.21-2.26
			c0.93,0,1.85,0.18,2.77,0.53l1.07-0.45l3.97,3.62c2.12,1.48,5.14,3.59,8.09,5.64l2.07-1.13l-1.04,1.84
			c2.41,1.67,4.69,3.25,6.3,4.36l-3.35-3.49l3.09-5.45l10.55-5.78v11.58l-3.32,5.48l-5.74-1.49c0.09,0.06,0.18,0.12,0.26,0.18
			c1.51,1.03,3.1,2.46,4.65,4.21l2.23,0.58l1.92-3.17v3.88l4.09,1.42l-2.97,0.99l0.21,4.43l-0.23-0.2c0.72,1.48,1.36,3.05,1.88,4.69
			c0.61,0.33,1.23,0.66,1.86,0.99c1.19,0.62,2.38,1.24,3.55,1.85c1.26,0.65,2.48,1.29,3.69,1.93l2.46-2.63v3.93
			c2.43,1.29,4.73,2.55,6.88,3.8h9.23l2.95,9.09c1.5,1.65,2.66,3.38,3.42,5.23l-1.78-9.59l2.7-6.08l3.11-1
			c-0.06-1.12-0.12-2.23-0.18-3.32l-0.82,0.92l-4.13-13.09l-1.22,5l-2.91-1.14l-3.73-1.24l-2.26-5.11l-0.01-0.02l3.91-3.91l8.28-2
			l-1.01,4.13l0.44-0.57c0-0.01,1.03-1.32,2.54-3.27c-0.11-3.15-0.16-5.59-0.16-7.42c0-0.11,0-0.21,0-0.32l-1.02,4.17l-5.01,1.21
			l2.5-2.5l-1.73-2.87l2.69,1.47l2.57-2.38c0.01-1.49,0.06-2.89,0.12-4.21l-3.15,2.94l-5.3-2.9l-6.23-10.35l11.84-0.24l3.69,2.13
			c0.33-2.04,0.73-3.77,1.14-5.23l-4.06,0.08l-10.09-5.82l10.37-6.11l5.27,0.02l1.79-3l-1.98-0.01l3.07-1.81l0.03-0.04l-0.99-3.52
			l1.99,1.84l2.08-3.48l-1.07,0.33L629.02,399.59z M623.53,391.2l1.27,4.48l-2.12-1.96l-3.36,1.82l1.82-3.19l-2.3-2.39L623.53,391.2
			z M613.26,388.48l4.16,4.34l-3.1,5.44l-10.34,5.61l-0.31-11.8l3.11-5.3L613.26,388.48z M605.27,425.78l-4.31,0.08l-0.04,4.5
			l-4.17-2.28l-2.49,4.09l-2.36-3.84l-3.62,1.98v-4.43h-4.9l2.27-4.01l-3.83-2.24l3.81-2.19l-2.27-4.06l5.1-0.14l-0.06-3.88
			l3.84,2.13l2.46-4.17l2.3,3.76l4.12-2.24l0.12,4.57l4.43,0.02l-2.3,4.04l3.72,2.15l-4.08,2.4L605.27,425.78z M607.91,457.73
			l1.58,3.58l-4.24-1.41l-2.43,2.59v-2.97l-4.13-1.44l5-1.66l0.03-3.15l1.61,2.61l4.06-0.98l-1.89,1.89L607.91,457.73z
			 M600.81,442.82l-4.78-7.78l1.79-2.95l3.07,1.68L600.81,442.82z M592.51,435.05l-4.23,6.96v-8.28l2.56-1.4L592.51,435.05z
			 M530.9,408.92l-4.93-4.77v-4.75l4.96-1.91l5.21,1.77l-0.08,4.67L530.9,408.92z M535.99,408.17l-0.07,4.04h-1.61l-1.25-1.21
			L535.99,408.17z M510.53,434.33l-4.93-2.09l-2.23,2.04l1.09-4.07l-2.33-1.33h2.57l1.75-4.83l1.32,3.2h4.91l-3.53,3.58
			L510.53,434.33z M492.08,443.88l3.25,1.78l2.48-2.26l-1.26,4.68l-4.86,1.27l2.19-2.28L492.08,443.88z M494.89,442l-5.62-3.07
			l-5.7-10.05h12.53l4.86,2.78l-1.71,6.37L494.89,442z M469.91,428.33l-2.36,3.84l-2.49-4.09l-4.18,2.28l-0.04-4.5l-4.3-0.08
			l2.26-3.76l-4.08-2.4l3.72-2.15l-2.31-4.04l4.44-0.02l0.12-4.57l4.12,2.24l2.3-3.76l2.46,4.17l3.83-2.13l-0.05,3.88l5.1,0.14
			l-2.27,4.06l3.81,2.19l-3.83,2.24l2.27,4.01h-4.91v4.43L469.91,428.33z M473.52,433.73v8.28l-4.22-6.96l1.67-2.72L473.52,433.73z
			 M465.78,435.04l-4.78,7.78l-0.08-9.05l3.07-1.68L465.78,435.04z M454.36,416.36l-2.61,1.51l-7.48-4.41l8.42-0.02L454.36,416.36z
			 M450.31,403.21l7.42,4.03l-0.08,3.18l-3.22,0.01L450.31,403.21z M448.77,419.59l-10.1,5.82l-6.8-0.14l-2.37-5.76l2.24-6.01
			l6.65-0.02L448.77,419.59z M451.74,421.34l2.93,1.72l-1.59,2.64l-8.61-0.17L451.74,421.34z M454.75,428.74l3.12,0.06l0.03,3.2
			l-7.62,4.16L454.75,428.74z M452.48,377.39l3.55,1.5l3.13-2.94l0.07,4.12l3.61,1.26l-4.46,1.71l-0.09,3.37l-1.83-3.12l-3.9,1.03
			l1.88-1.95L452.48,377.39z M530.9,338.88l-6.38-10.17v-5.92l6.38-2.41l6.38,2.41v5.92L530.9,338.88z M537.28,334.35v8.77
			l-2.74,1.55l-1.87-2.97L537.28,334.35z M529.13,341.7l-1.86,2.97l-2.75-1.55v-8.77L529.13,341.7z M528.28,348.7l2.62-4.18
			l2.62,4.18l3.76-2.13V351h4.91l-2.32,4.09l3.89,2.26l-4.09,2.45l2.05,3.58h-4.65v4.49l-3.4-1.95l-0.77,1.23l-1.8,2.87l-1.88-3.09
			l-0.76-1.25l-3.74,2.15l0.02-4.45h-4.65l2.05-3.58l-4.09-2.45l3.88-2.26l-2.31-4.09h4.9v-4.43L528.28,348.7z M599.69,373.18
			l-0.08,4.75l-4.98,1.74l-5.11-1.96l-0.08-4.51l5.05-4.9L599.69,373.18z M596.64,366.21l1.31-1.27h1.88l-0.07,4.19L596.64,366.21z
			 M594.65,401.48l-6.52-10.66l-0.08-5.67l6.53-2.28l5.9,2.26l0.16,6.16L594.65,401.48z M600.8,396.95l0.23,8.53l-2.96,1.6
			l-1.65-2.69L600.8,396.95z M592.92,404.41l-1.78,3.04l-2.79-1.55l-0.13-9.18L592.92,404.41z M589.36,369.09l-0.07-3.92h1.86
			l1.15,1.07L589.36,369.09z M590.25,381.21l-5.23,1.82l0.04,2.76l-1.5-2.45l-4.33,1.19l2.11-2.26l-1.79-4.57l3.7,1.49l3.24-3.13
			l0.06,3.73L590.25,381.21z M566.8,410.85l-5.95-3.48l1.57-5.54l4.63-4.33l5.74,3.19l5.52,9.83L566.8,410.85z M579.97,413.48
			l1.59,2.83l-2.73,1.57l-7.13-4.17L579.97,413.48z M569.99,395.7l-3.64-2.02l-2.25,2.18l1.23-4.39l4.45-1.23l-1.78,1.91
			L569.99,395.7z M571.69,392.6l3.62-3.88l6.87-1.89l2.96,4.86l0.19,12.53l-10.34-5.74L571.69,392.6z M586.85,353.81l-1.44,1.42
			l-2.75-2.98h4.19V353.81z M586.21,360.51l0.03,1.66h-3.59l2.66-2.63L586.21,360.51z M586.29,365.17l0.12,6.78l-3.85,3.73
			l-4.5-1.81l-2.02-5.18l3.57-3.52H586.29z M577.86,381.6l-4.16,4.45l-10.8,2.98L559.81,400l-3.92,3.78l-5.96-2.41l-2.52-6.33
			l3.57-3.61l11.74-3.17l2.79-10.75l4.08-3.82l6.14,2.47L577.86,381.6z M555.95,382.15l2.86,1.64l2.61-2.44l-1.16,4.47l-5.11,1.38
			l2.33-2.37L555.95,382.15z M558.38,380.08l-5.39-3.09l-6.09-10.61h12.35l5.25,3.05l-1.67,6.48L558.38,380.08z M545.17,363.38
			l-1.44-2.51l2.99-1.79l7.38,4.3H545.17z M547.84,374.04l-7.65-4.39l0.01-3.27h3.24L547.84,374.04z M550.79,379.19l2.96,5.15
			l-4.34,4.4l-5.93,1.6l-3.37-5.52l0.06-11.72L550.79,379.19z M574.24,372.33l-5.31-2.14l-2.01,1.88l1.06-4.09l-2.77-1.6h2.86
			l2.09-5.5l1.69,4.29h3.49l-2.81,2.77L574.24,372.33z M566,363.38h-5.94l-10.4-6.06l10.58-6.32h6.02l2.26,5.74L566,363.38z
			 M546.7,355.6l-2.76-1.61l1.69-2.99h8.76L546.7,355.6z M543.88,348h-3.6v-3.13l7.91-4.48L543.88,348z M531.06,375.77l6.01,9.93
			v6.21l-6.2,2.39l-6.27-2.12l0.03-6.1L531.06,375.77z M524.66,380.29l0.04-8.99l2.72-1.56l1.89,3.13L524.66,380.29z M532.86,372.9
			l1.83-2.94l2.38,1.37v8.49L532.86,372.9z M506.66,387.2l-5.11-1.38l-1.16-4.47l2.61,2.44l2.86-1.65l-1.54,2.69L506.66,387.2z
			 M503.43,380.08l-4.45-4.17l-1.68-6.48l5.26-3.05h12.35l-6.08,10.6L503.43,380.08z M507.71,363.38l7.38-4.3l2.98,1.79l-1.44,2.51
			H507.71z M511.03,379.17l10.57-6.08v12.08l-3.26,5.18l-5.94-1.61l-4.34-4.4L511.03,379.17z M513.99,374l4.38-7.62h3.23v3.25
			L513.99,374z M521.52,348h-3.6l-4.3-7.61l7.9,4.48V348z M517.86,353.99l-2.75,1.61l-7.7-4.6h8.76L517.86,353.99z M512.14,357.32
			l-10.39,6.06h-5.94l-2.53-6.64l2.26-5.74h6.03L512.14,357.32z M493.74,366.38h2.85l-2.76,1.6l1.06,4.09l-2.01-1.88l-5.31,2.14
			l1.71-4.39l-2.81-2.77h3.49l1.69-4.29L493.74,366.38z M492.22,373.69l4.08,3.82l2.78,10.75l11.75,3.17l3.56,3.61l-2.48,6.25
			l-6.13,2.43l-3.77-3.67l-3.1-11.02l-10.8-2.98l-4.16-4.45l2.12-5.44L492.22,373.69z M507.56,412.21l-1.28,3.53l-1.91-4.63
			l-3.69-0.1l3.79-2.22l-0.84-2.98l1.45,1.41l5.3-2.1l-1.6,4.03l3.14,3.06H507.56z M514.98,415.21l4.88,4.76l-4.22,4.28h-5.86
			l-1.81-4.39l1.69-4.65H514.98z M484.02,403.46l-3.91,6.97l-3.72-0.11l0.04-2.64L484.02,403.46z M476.48,404.22l0.18-12.53
			l2.97-4.86l6.87,1.89l3.62,3.88l-3.3,5.88L476.48,404.22z M482.98,417.88l-2.73-1.57l1.59-2.83l8.27,0.23L482.98,417.88z
			 M482.99,421.35l7.89,4.53h-9.01l-1.64-2.92L482.99,421.35z M483.5,410.52l5.52-9.83l5.94-3.31l4.38,4.26l1.61,5.73l-5.94,3.48
			L483.5,410.52z M492.02,390.24l4.46,1.23l1.24,4.4l-1.46-1.41l-0.8-0.78l-3.65,2.02l2-3.55L492.02,390.24z M483.75,373.87
			l-4.51,1.81l-3.85-3.73l0.12-6.78h6.69l3.57,3.52L483.75,373.87z M475.57,362.17l0.03-1.66l0.9-0.97l2.66,2.63H475.57z
			 M476.4,355.23l-1.44-1.42v-1.56h4.19L476.4,355.23z M475.26,379.79l0.06-3.73l3.23,3.13l3.7-1.49l-1.78,4.57l2.11,2.26
			l-4.33-1.19l-1.5,2.45l0.04-2.76l-5.23-1.82L475.26,379.79z M467.16,401.48l-6-10.19l0.17-6.16l5.89-2.26l6.54,2.28l-0.08,5.67
			L467.16,401.48z M473.59,396.72l-0.14,9.18l-2.78,1.55l-1.78-3.04L473.59,396.72z M465.39,404.39l-1.65,2.69l-2.96-1.6l0.23-8.53
			L465.39,404.39z M472.44,369.09l-2.93-2.85l1.15-1.07h1.85L472.44,369.09z M472.37,373.2l-0.08,4.51l-5.11,1.96l-4.99-1.74
			l-0.07-4.75l5.2-4.88L472.37,373.2z M462.05,369.13l-0.07-4.19h1.87l1.31,1.27L462.05,369.13z M476.52,428.88h3.61l4.14,7.31
			l-7.75-4.24V428.88z M496.91,425.88l-10.93-6.28l9.8-5.73l6.56,0.19l2.42,5.87l-2.16,5.95H496.91z M516.89,427.25h6.04v7.25
			l-3.67,3.52l-4.86-2.05l-1.75-4.42L516.89,427.25z M519.85,424.25l2.16-2.18l0.92,0.91v1.27H519.85z M521.97,417.84l-2.69-2.63
			h3.69v1.61L521.97,417.84z M516.21,412.21l-3.9-3.81l1.91-4.8l4.87-1.93l3.88,3.75v6.79H516.21z M519.79,398.17l-4.05,1.6
			l2.16-5.44l-1.33-1.36l3.13,0.85l0.62-0.98l0.07,0.04l1.21-1.94v2.27l-0.01,1.11l4.91,1.67l-3.53,1.36v3.89L519.79,398.17z
			 M525.97,408.32l2.78,2.68l-1.25,1.21h-1.53V408.32z M535.31,395.81l4.76-1.84v-1l0.02-2.29l1.32,2.18l0.07-0.04l0.61,1l3.15-0.84
			l-1.34,1.35l2.18,5.47l-4.05-1.64l-2.92,2.82l0.07-3.86L535.31,395.81z M539.04,405.22l3.67-3.55l4.91,1.99l1.88,4.74l-3.9,3.81
			h-6.68L539.04,405.22z M546.82,415.21h5.33l1.69,4.65l-1.81,4.38l-5.81-0.04l-4.25-4.25L546.82,415.21z M549.89,412.21l3.14-3.06
			l-1.56-3.92l5.09,2.06l0.01,0.01l0.68-0.66l0.94-0.87l-0.85,3.02l3.79,2.22l-3.7,0.1l-1.9,4.63l-1.28-3.53H549.89z M559.47,414.06
			l6.55-0.19l9.81,5.73l-10.93,6.28h-5.69l-2.16-5.95L559.47,414.06z M578.82,421.35l2.76,1.61l-1.65,2.92h-9L578.82,421.35z
			 M577.79,403.46l7.59,4.22l0.04,2.64l-3.72,0.11L577.79,403.46z M604.16,410.42l-0.09-3.18l7.43-4.03l-4.12,7.22L604.16,410.42z
			 M602.9,360.49l1.18-1.22l2.5,2.67h-3.71L602.9,360.49z M602.83,364.94h6.55l3.41,3.64l-1.93,4.91l-4.45,1.87l-3.7-3.46
			L602.83,364.94z M602.65,375.95l3.13,2.94l3.54-1.5l-1.95,4.98l1.88,1.95l-3.9-1.03l-1.84,3.12l-0.09-3.37l-4.45-1.71l3.61-1.26
			L602.65,375.95z M592.85,347.88l-1.28,1.37h-1.72v-4.41L592.85,347.88z M589.85,355.06v-2.81h3.02l2.08-2.23l2.3,2.33l2.74-0.42
			l-0.27,2.68l2.31,2.47l-2.11,2.18l-0.05,2.68h-3.13l-2.29,2.21l-2.12-1.98h-3.09l-0.05-2.85l-1.74-1.89L589.85,355.06z
			 M578.41,340.81l5.43-2.06l3.01,3.05v7.45h-6.96l-3.58-3.87L578.41,340.81z M578.57,352.25l4.7,5.09l-4.89,4.83h-4.49l-2.15-5.45
			l1.7-4.47H578.57z M567.97,346.38l-0.94-3.71l1.84,1.75l5.55-2.1l-1.67,3.63l3.05,3.3h-4.43l-1.26,3.33L568.3,348h-3.04
			L567.97,346.38z M562.94,338.78l1.57,6.17l-5.1,3.05h-12.08l5.93-10.49l5.23-2.97L562.94,338.78z M560.38,328.72l1.17,4.59
			l-2.6-2.48l-2.82,1.6l1.59-2.82l-2.18-2.19L560.38,328.72z M549.74,325.87l4.25,4.25l-2.93,5.19l-10.78,6.11v-11.85l3.35-5.33
			L549.74,325.87z M539.19,317.25v-3.91l3.07,2.88l3.37-1.2l-1.54,5.2l1.41,1.41l-3.23-0.87l-0.59,0.94l-1.4,2.23v-3.22l-5.13-1.94
			L539.19,317.25z M525.62,310.51l5.28-4.97l5.29,4.97v4.66l-5.29,2l-5.28-2V310.51z M519.55,316.22l3.07-2.88v3.91l4.04,1.52
			l-5.14,1.94v3.22l-1.98-3.17l-3.23,0.87l1.41-1.41l-1.55-5.2L519.55,316.22z M512.06,325.87l6.12-1.63l3.34,5.33v11.85
			l-10.77-6.11l-2.93-5.19L512.06,325.87z M501.43,328.72l4.84-1.3l-2.19,2.19l1.6,2.82l-2.82-1.6l-2.6,2.48L501.43,328.72z
			 M498.87,338.78l4.44-4.24l5.24,2.97l5.93,10.49h-12.09l-5.09-3.05L498.87,338.78z M487.39,342.32l5.55,2.1l1.84-1.75l-0.94,3.71
			l2.71,1.62h-3.05l-1.8,4.58l-1.27-3.33H486l3.05-3.3L487.39,342.32z M488.36,352.25l1.71,4.47l-2.15,5.45h-4.49l-4.9-4.83
			l4.7-5.09H488.36z M477.97,338.75l5.43,2.06l2.09,4.57l-3.57,3.87h-6.96v-7.45L477.97,338.75z M471.96,344.84v4.41h-1.72
			l-1.28-1.37L471.96,344.84z M462.08,354.61l-0.26-2.68l2.73,0.42l2.3-2.33l2.08,2.23h3.03v2.81l2.4,2.37l-1.74,1.89l-0.05,2.85
			h-3.1l-2.12,1.98l-2.28-2.21h-3.14l-0.04-2.68l-2.11-2.18L462.08,354.61z M457.73,359.27l1.18,1.22l0.02,1.45h-3.7L457.73,359.27z
			 M449.02,368.58l3.41-3.64h6.55l0.12,6.96l-3.7,3.46l-4.45-1.87L449.02,368.58z M448.55,388.48l6.48-1.71l3.11,5.3l-0.32,11.8
			l-10.33-5.61l-3.11-5.44L448.55,388.48z M438.28,391.2l4.69-1.24l-2.3,2.39l1.82,3.19l-3.36-1.82l-2.12,1.96L438.28,391.2z
			 M435.45,401.21l4.14-3.83l5.72,3.11l5.67,9.95l-11.77,0.03l-5.47-3.22L435.45,401.21z M425.64,408.56l-1.26-2.8l4.61,1.43
			l2.24-2.07l-1.01,3.54l3.11,1.83l-3.68,0.01l-1.83,4.92l-1.38-3.36l-4.29,0.11L425.64,408.56z M419.8,423.96l-4.39-4.84l3.75-3.87
			l5.29-0.14l1.83,4.46l-1.56,4.22L419.8,423.96z M430.28,430.25l0.81,3.61l-1.95-1.82l-5.7,2.68l2.02-4.5l-3.03-3.35l4.4-0.16
			l1.13-3.05l1.88,4.57l3.81,0.08L430.28,430.25z M439.75,441.92l-4.77-4.44l-1.29-5.73l5.76-3.32l11.84,0.24l-6.23,10.35
			L439.75,441.92z M448.35,450.83l-4.31-4.31l3.17-5.26l10.72-5.86l0.11,12.22l-2.97,4.83L448.35,450.83z M458.98,459.52v2.97
			l-2.42-2.59l-4.66,1.55l2.47-4.6l-1.95-1.95l4.06,0.98l1.61-2.61l0.03,3.15l4.99,1.66L458.98,459.52z M467.76,456.47l-6.66-2.22
			l-0.05-5.79l6.48-10.54l5.99,9.87v6.68L467.76,456.47z M478.6,460.45l-3.4,3l0.21-4.43l-2.98-0.99l4.09-1.42v-3.88l1.93,3.17
			l3.74-0.97l-1.64,1.7l1.92,5.38L478.6,460.45z M479.85,452.43l-3.33-5.48v-11.58l10.56,5.78l3.09,5.45l-4.02,4.19L479.85,452.43z
			 M484,457.37l3.73-3.89l11.27-2.94l2.92-10.89l4.28-3.89l5.87,2.48l2.33,5.91l-4.01,4.17l-11.26,2.95l-3.12,11.52l-3.5,3.27
			l-6.31-2.54L484,457.37z M503.44,473.14l-6.13-3.68l1.37-5.06l5-4.67l5.7,3.25l5.67,10.3L503.44,473.14z M516.72,476.31l1.36,2.46
			l-2.63,1.59l-6.86-4.13L516.72,476.31z M503.24,456.02l-3.07,2.88l1.4-5.17l4.83-1.26l-1.79,1.85l2,3.62L503.24,456.02z
			 M491.85,477.89l-1.49-3.56h-4.43l2.98-3.23l-1.36-3.8l5.61,2.26l1.36-1.27l-0.7,2.58l3.68,2.2l-3.85-0.04L491.85,477.89z
			 M502.38,488.25h-6.19l-2.64-6.31l2.18-5.89l6.86,0.08l9.96,5.98L502.38,488.25z M508.19,488.25l7.27-4.39l2.8,1.68l-1.51,2.71
			H508.19z M524.36,496.76l3.4-1.91l1.49,3.24l-4.89,10.61V496.76z M518.51,491.25h2.85v3.76l-7.19,4.04L518.51,491.25z
			 M521.6,473.36l-3.1-0.04l-3.79-6.89l-0.33-0.59l7.22,4.14V473.36z M521.6,466.48l-10-5.69l-3.29-5.98l3.66-3.8l6.45-1.69
			l3.18,5.12V466.48z M521.6,445.38v3.37l-1.8-2.9l-3.84,1.01l1.94-2.01l-1.96-4.97l3.97,1.68l0.74-0.71l2.28-2.17v3.69l3.53,1.27
			L521.6,445.38z M527.21,469.69l-2.61-1.5v-8.92l4.54,7.32L527.21,469.69z M537.21,468.19l-2.62,1.5l-1.92-3.1l4.54-7.32V468.19z
			 M540.21,469.98l7.21-4.14l-0.15,0.27l-4.05,7.37l-3.01-0.07V469.98z M537.21,447.49v6.09l-6.31,10.16l-6.3-10.16v-6.09l6.3-2.26
			L537.21,447.49z M535.88,440.26l-4.98,1.78l-4.97-1.78v-4.45l5.32-5.07l4.63,4.72V440.26z M525.93,431.62v-4.37h1.9l1.28,1.31
			L525.93,431.62z M535.88,431.17l-2.46-2.5l1.62-1.54l0.84,0.01V431.17z M535.88,421.71v2.42l-2.04-0.01h-0.1l-2.46,2.36
			l-2.19-2.23h-3.16v-2.54l-1.82-1.77l1.86-1.89v-2.84h2.74l2.19-2.12l2.19,2.12h2.78l-0.04,2.83v0.01l0.44,0.44l1.42,1.45
			L535.88,421.71z M538.85,416.83l0.02-1.62h3.66l-2.68,2.62L538.85,416.83z M541.88,424.18l-3-0.03v-1.17l0.92-0.91L541.88,424.18z
			 M547.41,435.97l-4.83,2.04l-3.7-3.77v-7.08l5.98,0.04l4.29,4.35L547.41,435.97z M557.35,430.21l1.09,4.07l-2.23-2.04l-4.93,2.09
			l1.38-3.5l-0.6-0.61l0.09-0.09l-2.91-2.91l3.27,0.03l1.53,0.01l1.32-3.21l1.75,4.83h2.57L557.35,430.21z M572.54,438.93
			l-5.62,3.07l-4.37-3.97l-1.71-6.37l4.86-2.78h12.53L572.54,438.93z M585.28,431.95l-7.74,4.24l4.14-7.31h3.6V431.95z
			 M588.28,454.47v-6.68l6-9.87l6.48,10.54l-0.05,5.79l-6.67,2.22L588.28,454.47z M599.82,465.69l-4.82,5.16l-5.26-4.63l-0.24-5.07
			l4.52-1.51l5.8,2.01V465.69z M620.51,468.41l0.82,0.32l0.03-0.03l0.43,0.15l-0.59,2.18l2.53,2.12l-2.77,0.89l-1.71,4.27l-1.14-3.5
			h-4.56l3.65-3.5l-2.1-4.74L620.51,468.41z M611.13,465.01l2.47,5.59l-4.39,4.21h-6.39v-7.93l3.31-3.53L611.13,465.01z
			 M617.77,446.52l-4.31,4.31l-6.72,1.62l-2.97-4.83l0.11-12.22l10.72,5.86L617.77,446.52z M611.53,436.16l-7.62-4.16l0.03-3.2
			l3.12-0.06L611.53,436.16z M617.34,425.53l-8.61,0.17l-1.59-2.64l2.93-1.72L617.34,425.53z M610.06,417.87l-2.61-1.51l1.67-2.92
			l8.41,0.02L610.06,417.87z M622.6,410.47l-11.77-0.03l5.67-9.95l5.72-3.11l4.14,3.84l1.71,6.03L622.6,410.47z"/>
		<path class="st2" d="M650.05,419.54l0.44-0.49l-0.92-0.95C649.74,418.6,649.9,419.08,650.05,419.54z"/>
		<path class="st2" d="M650.78,418.21L650.78,418.21v3.47c0.08,0.23,0.16,0.45,0.23,0.65l0.82-1.38c-0.33-0.89-0.66-1.78-1.01-2.65
			C650.8,418.27,650.79,418.24,650.78,418.21z"/>
		<path class="st2" d="M628.81,385.83l-1.41-6.92l0-0.02c-0.09-0.12-0.19-0.23-0.28-0.34c-1.25-1.57-2.51-3.12-3.8-4.65l2.92,14.35
			l9.89,2.63c-0.86-1.28-1.73-2.54-2.62-3.8L628.81,385.83z"/>
	</g>
	<g>
		<path class="st3" d="M554.97,719.73h-18.5v49.02l1.11,1.08h17.39c13.81,0,25.05-11.24,25.05-25.05
			C580.02,730.97,568.78,719.73,554.97,719.73z M554.97,766.33h-15v-43.1h15c11.88,0,21.55,9.67,21.55,21.55
			C576.52,756.67,566.85,766.33,554.97,766.33z"/>
		<path class="st3" d="M723.7,719.73h-18.51v49.05l1.08,1.05h17.43c13.81,0,25.05-11.24,25.05-25.05
			C748.75,730.97,737.51,719.73,723.7,719.73z M723.7,766.33h-15.01v-43.1h15.01c11.88,0,21.55,9.67,21.55,21.55
			C745.25,756.67,735.58,766.33,723.7,766.33z"/>
		<polygon class="st3" points="396.58,747.79 395.88,748.52 395.88,750.55 396.67,751.29 417.19,751.29 418.02,750.59 
			418.02,748.63 417.24,747.79 		"/>
		<polygon class="st3" points="488.69,719.5 486.23,719.5 470.81,763.41 455.67,719.5 452.64,719.5 437.56,762.99 422.32,719.5 
			419.82,719.5 418.96,720.51 436.09,769.76 439.03,769.76 454.15,726.33 469.18,769.76 472.43,769.76 489.56,720.59 		"/>
		<path class="st3" d="M612.89,718.56c-14.33,0-25.99,11.66-25.99,25.99s11.66,25.99,25.99,25.99c14.33,0,25.99-11.66,25.99-25.99
			S627.22,718.56,612.89,718.56z M612.89,767.04c-12.4,0-22.49-10.09-22.49-22.49c0-12.4,10.09-22.49,22.49-22.49
			c12.4,0,22.49,10.09,22.49,22.49C635.38,756.95,625.29,767.04,612.89,767.04z"/>
		<path class="st3" d="M671.61,718.56c-14.33,0-25.98,11.66-25.98,25.99s11.65,25.99,25.98,25.99c14.34,0,25.99-11.66,25.99-25.99
			S685.95,718.56,671.61,718.56z M671.61,767.04c-12.4,0-22.48-10.09-22.48-22.49c0-12.4,10.08-22.49,22.48-22.49
			c12.41,0,22.49,10.09,22.49,22.49C694.1,756.95,684.02,767.04,671.61,767.04z"/>
		<path class="st3" d="M333.53,719.56l-22.49,48.73l0.91,1.47h2.27l6.73-14.58h28.42l6.93,14.58h2.1l1.02-1.57l-23.1-48.63H333.53z
			 M322.56,751.68l12.39-26.85l12.76,26.85H322.56z"/>
		<path class="st3" d="M505.53,719.56l-22.49,48.73l0.91,1.47h2.27l6.73-14.58h28.42l6.93,14.58h2.1l1.02-1.57l-23.1-48.63H505.53z
			 M494.56,751.68l12.39-26.85l12.76,26.85H494.56z"/>
		<polygon class="st3" points="367.59,766.5 367.59,720.25 366.88,719.58 364.8,719.58 364.09,720.29 364.09,768.82 365.33,770 
			400.77,770 401.62,769.07 401.62,767.35 400.9,766.5 		"/>
		<path class="st3" d="M649.96,469.69c0,0,1.61-1.79,3.86-4.32c0.05,1.34,0.11,2.75,0.18,4.22c1.23,27.41,4.48,75.42,5.02,86.91
			c0.67,14.25-0.25,26-4.75,33.08c0,0,0.15,0.77,0.87,0.25c0.73-0.52,12.88-15.33,13.13-27.16c0.2-9.58-3.64-75.16-5.1-99.82
			c-0.2-3.41-0.36-6.05-0.46-7.63c2.12-2.49,3.88-4.61,4.62-5.66c0.27-0.38,0.49-0.81,0.68-1.26c1.58-3.81,0.33-9.67-0.68-11.86
			c-1.12-2.44-6.06-18.32-6.06-18.32l-0.24,0.4l-5.97,10.02c0,0-0.24,0.28-0.44,0.71c-0.31,0.68-0.52,1.76,0.44,2.83
			c0.13,0.14,0.3,0.35,0.51,0.61c0.26,0.32,0.56,0.71,0.91,1.18c-0.12,0.26-0.26,0.58-0.4,0.93c-0.6,1.51-1.29,3.87-1.8,7.4
			c-0.07,0.45-0.13,0.92-0.19,1.41c-0.34,2.82-0.57,6.29-0.57,10.57c0,1.1,0.02,2.41,0.06,3.9c0.04,1.68,0.1,3.59,0.18,5.69
			c-2.3,2.97-4.03,5.2-4.03,5.2L649.96,469.69z M662.48,452.33c0,0.01-0.01,0.01-0.01,0.02c-0.2-2.09-0.42-6.53,1-8.89
			c1,1.39,1.67,2.33,1.67,2.33S666.64,446.75,662.48,452.33z"/>
		<path class="st3" d="M646.09,539.26c0.29-3.8-0.29-7.37-0.35-7.72c-0.01-0.02-0.01-0.03-0.01-0.03c-0.01-0.13-0.01-0.26-0.02-0.38
			c-1.4-28.94-4.22-76.1-4.8-85.66c0.52-0.61,1.02-1.2,1.49-1.75c0.83-0.99,1.55-1.86,2.13-2.58c0.04-0.05,0.08-0.1,0.12-0.14
			c0.37-0.47,0.68-0.87,0.9-1.18c0.29-0.42,0.53-0.88,0.73-1.38c1.42-3.6,0.41-8.93-0.55-11.33c-0.06-0.14-0.12-0.29-0.17-0.41
			c-0.32-0.7-0.96-2.52-1.71-4.74c-0.69-2.07-1.48-4.5-2.19-6.72c-1.18-3.71-2.16-6.85-2.16-6.85l-1.34,2.24l-0.89,1.5l-3.98,6.68
			c0,0-1.58,1.79,0,3.54c0.28,0.31,0.79,0.95,1.43,1.79c-0.12,0.25-0.24,0.54-0.37,0.86c-0.59,1.47-1.28,3.76-1.8,7.19
			c-0.2,1.35-0.38,2.87-0.52,4.58c-0.18,2.22-0.28,4.76-0.28,7.67c0,2.34,0.09,5.63,0.24,9.59c-2.29,2.97-4.03,5.2-4.03,5.2
			l0.23,0.73c0,0,1.61-1.79,3.86-4.32c1.06,26.38,4.63,79.03,5.2,91.13c0.02,0.53,0.05,1.06,0.06,1.59c-3,1.53-7.62,3.16-12.7,4.43
			c-3.81-12.29-12.59-19.06-20-20.66c-2.3-0.5-4.48-0.52-6.32-0.03c-4.11,1.1-7.23,4.75-9.6,9.03c-2.15,3.88-3.7,8.28-4.82,11.81
			c-2.33,7.41,9.25,15.91,20.59,15.2c4.44-0.27,9.43-1.33,14.13-2.62l1.79,5.34l-2.71,2.04c-13,9.24-30.88,18.45-45.38,25.12
			s-31.33,5.42-36.83-5.83c-1.99-4.08-2.03-9.09-1.2-14.03c1.45-8.68,5.57-17.08,6.41-19.61c1.31-3.97,3.12-7.22,2.5-7.84
			c-0.63-0.63-1.21-0.61-1.21-0.61s-6.34,14.75-8.67,20.92c-0.72,1.9-2.08,5.79-3.04,10.52c-2.16,10.66-2.21,25.59,12.04,31.65
			c20.58,8.75,34.67-1.25,34.67-1.25s30.41-20.34,36.16-24.84s9.25-11.41,9.25-11.41s2.64-8.41,3.65-12.42
			c4.09-1.35,7.42-2.62,9.15-3.25c0.88-0.32,1.6-0.69,2.19-1.09c2.4-1.6,2.68-3.53,2.68-3.53s2.63-5.63,4.87-10.76
			c0.66-1.5,1-3.23,1.16-4.95C646.06,539.53,646.08,539.4,646.09,539.26z M601.58,554.12c-9.93-3.06-10.19-6.31-10.19-6.31
			c8.82-9.17,19.3,2.31,22.87,6.86C609.45,555.21,604.92,555.15,601.58,554.12z M641.43,441.55c-0.22,0.32-0.47,0.67-0.74,1.03
			c0,0.01-0.01,0.01-0.01,0.02c-0.07-0.77-0.15-1.85-0.14-3.03c0.01-1.82,0.22-3.85,0.9-5.33c0.08-0.18,0.16-0.37,0.25-0.53
			c0.99,1.4,1.66,2.34,1.66,2.34s0.36,0.24,0.23,1.13C643.47,437.98,642.96,439.34,641.43,441.55z"/>
		<path class="st3" d="M537.39,535c1.69,3.19,4.06,5.43,6.79,6.96c7.96,4.46,19.01,2.83,25.34,0.79c2.89-0.94,8.27-3.45,14.37-6.63
			c6.32-3.29,13.42-7.28,19.34-10.96c5.18-3.21,9.46-6.18,11.54-8.22c6.75-6.63,3.69-14.88,1.62-21.63
			c-1.9-6.24-13.27-12.1-26.16-18.81c-1.06-0.55-2.13-1.11-3.21-1.67c-0.03-0.01-0.05-0.03-0.08-0.04c-1.59-0.84-3.06-1.64-4.4-2.42
			c-0.56-2.67-1.54-5.14-2.72-7.32c-0.94-1.75-2.01-3.31-3.1-4.63c-1.38-1.67-2.78-2.98-3.98-3.8c-1.48-1.01-4.69-3.23-8.1-5.6
			c-0.69-0.48-1.39-0.97-2.08-1.45c-4.37-3.04-8.58-5.98-9.51-6.65c-1.82-1.3-1.72,0-1.72,0s0.44,2.67,0.92,5.61
			c0.35,2.16,0.73,4.46,0.97,5.97c0.04,0.24,0.07,0.46,0.11,0.65c0.06,0.38,0.11,0.67,0.13,0.84c0.25,1.6,0.73,1.69,0.73,1.69
			l3.35,2.38l2.25,1.6c0.62,1.9,2.17,4.09,4.35,6.42c0.96,1.03,2.05,2.09,3.23,3.16c1.23,1.12,2.56,2.25,3.96,3.38
			c1.11,0.9,2.27,1.8,3.45,2.7c9.74,7.35,21.53,14.36,27.08,17.25c9.75,5.09,13.25,9.75,13.25,9.75s-0.91,1.17-20,11.59
			c-19.08,10.41-28.16,13.75-38.58,14.75c-8.12,0.78-13.14-2.91-16.11-7.84c-0.84-1.4-1.52-2.89-2.05-4.41
			c-0.99-2.84,0.25-9.15,2.09-15.64c0.35-1.24,0.72-2.48,1.1-3.71c0.31-0.99,0.62-1.96,0.93-2.91c0.4-1.21,0.8-2.39,1.18-3.51
			c0.04-0.18,0.08-0.36,0.12-0.54l0.04,0.08c0.5-1.44,0.98-2.77,1.41-3.94h-0.18l-0.29-0.53c0.42-1.82,0.69-2.97,0.69-2.97
			l1.23-0.69l0.12,0.07c0.03-0.07,0.05-0.12,0.07-0.18c0.14-0.34,0.23-0.57,0.26-0.62c0.38-0.71-0.01-1.04-0.77-1.45
			c-0.77-0.41-1.1,0.1-1.1,0.1c-0.59,1.18-1.17,2.37-1.72,3.56c0,0,0,0,0,0c-0.88,1.89-1.71,3.8-2.49,5.71
			c-0.21,0.51-0.41,1.03-0.61,1.54c-1.14,2.93-2.15,5.86-3,8.76c-0.45,1.52-0.85,3.03-1.21,4.53c-0.35,1.45-0.65,2.89-0.9,4.3
			c-1.11,6.18-1.34,12-0.44,17.07C535.38,530.21,536.2,532.75,537.39,535z M575.56,462.88c0.07,0.06,0.14,0.12,0.21,0.18
			c0.94,0.81,1.73,1.73,2.37,2.66c1.49,2.18,2.24,4.44,2.54,5.54c-1.41-0.85-2.66-1.66-3.8-2.43c-2.15-1.45-3.84-2.73-5.11-3.78
			c-2.45-2.03-3.42-3.23-3.42-3.23C568.35,461.08,571.39,459.46,575.56,462.88z"/>
		<path class="st3" d="M423.23,546.27c0.03-0.01,0.06-0.02,0.09-0.02c2.45-0.64,4.69-1.33,6.57-1.99c0.56-0.2,1.17-0.42,1.85-0.67
			c-1.05,2.35-2.32,5.28-3.61,8.48c-0.01,0.04-0.03,0.07-0.04,0.11c-1.06,2.64-2.15,5.46-3.15,8.33
			c-4.09,11.67-10.59,33.17,5.83,44.33c16.42,11.17,40.5,1.92,48.92-2.83c7.92-4.47,36.25-19,44.6-24.43
			c0.51-0.33,0.96-0.64,1.31-0.9c6.09-4.5,8.09-8,8.09-8s5.52-12.17,5.75-17.59c0.06-1.46-0.18-3.02-0.72-4.73
			c-0.28-0.88-0.65-1.81-1.11-2.78c-1.67-3.58-4.56-7.83-8.87-13.15c-0.68-0.84-1.39-1.7-2.14-2.59
			c-9.33-11.08-24-12.95-30.16-11.08c-1.23,0.37-2.29,0.94-3.22,1.59c-1.67,1.17-2.89,2.65-3.73,3.94
			c-1.05,1.62-1.51,2.92-1.51,2.92s-2.75,8.37-4.42,13.96c-1.67,5.58,4.83,10.24,4.83,10.24c9.16,7.4,22.04,3.65,28.16,1.9
			c6.13-1.75,9.31,0.31,9.84,0.69c0.54,0.38,0.82,0.16,0.82,0.16l1.09-1.13c1.23,1.23,2.64,3.82,3.58,5.71
			c0.64,1.29,1.06,2.26,1.06,2.26c-0.95,0.9-2.01,1.81-3.13,2.72c-20.12,16.37-66.08,34.54-80.21,34.7
			c-14.91,0.16-24.91-6.09-24.58-19.25c0.18-7.1,3.5-17.9,6.53-26.35c0.01-0.02,0.01-0.04,0.02-0.06c1.16-3.23,2.28-6.13,3.16-8.32
			v-0.01c2.51-0.98,5.48-2.19,8.69-3.54c14.39-6.08,33.86-15.22,41.07-21.08c0.09-0.08,0.2-0.15,0.29-0.23
			c1.49-1.25,2.69-2.58,3.66-3.97c3.3-4.74,3.76-10.14,2.79-15.11c-0.2-1.03-0.47-2.05-0.78-3.03c-0.83-2.62-2.01-5.04-3.3-7.06
			c-4.23-6.66-20.35-13.03-39.02-19.93c-0.26-0.1-0.51-0.19-0.77-0.29c-2.17-0.8-4.18-1.58-6.03-2.34c-1.11-3.5-2.97-6.62-5.1-9.23
			c-2.89-3.55-6.25-6.15-8.86-7.45c-1.64-0.81-4.84-2.43-8.48-4.27c-0.87-0.44-1.77-0.9-2.68-1.36c-0.71-0.36-1.43-0.72-2.14-1.09
			c-1.15-0.58-2.29-1.16-3.39-1.72c-2.26-1.15-4.37-2.22-6.09-3.1c-1.92-0.98-3.34-1.71-3.9-1.99c-2.47-1.28-2.23,0.15-2.23,0.15
			s3.31,12.62,3.75,14.39c0.13,0.5,0.27,0.85,0.41,1.11c0.35,0.66,0.67,0.7,0.67,0.7l7.6,3.94c4.98,10.85,44.2,28.15,57.28,32.95
			c13.08,4.81,19.67,12.84,19.67,12.84s-10.75,7.37-35.92,17.67c-25.44,10.4-26.76,12.67-40.24,14.7
			c-13.49,2.04-22.57-4.89-22.26-13.77c0.3-8.33,8.44-35.62,8.88-36.43c0.44-0.82,0.47-1.18-0.56-1.57
			c-1.04-0.39-1.03,0.07-1.03,0.07c-11.14,22.27-17.16,45.62-9.43,57.2C394.77,550.84,411.5,549.29,423.23,546.27z M500.85,539.96
			c-9.79-1.75-10.58-5.84-10.58-5.84s1.88-5.83,11.38-4.7c9.5,1.12,16.71,8.39,16.71,8.39C515.17,537.5,510.65,541.71,500.85,539.96
			z M422.05,455.35c-0.06-0.84,3.78-2.92,9.46,0.52c2.83,1.71,4.72,4.11,5.9,6.08c0.7,1.16,1.15,2.18,1.41,2.83
			c-0.15-0.06-0.28-0.13-0.43-0.19C426.31,459.29,422.05,455.35,422.05,455.35z"/>
	</g>
</g>
</svg>
